<svg width="1091" height="436" viewBox="0 0 1091 436" fill="none" xmlns="http://www.w3.org/2000/svg">
<path d="M0 4.23618C0 1.8966 1.89606 0 4.23497 0H26.4602C28.7991 0 30.6952 1.8966 30.6952 4.23619V26.4678C30.6952 28.8074 28.7991 30.704 26.4602 30.704H4.23497C1.89606 30.704 0 28.8074 0 26.4678V4.23618Z" fill="black"/>
<path d="M33.765 4.23618C33.765 1.8966 35.6611 0 38 0H60.2252C62.5641 0 64.4602 1.8966 64.4602 4.23619V26.4678C64.4602 28.8074 62.5641 30.704 60.2252 30.704H38C35.6611 30.704 33.765 28.8074 33.765 26.4678V4.23618Z" fill="black"/>
<path d="M67.53 4.23618C67.53 1.8966 69.4261 0 71.765 0H93.9902C96.3292 0 98.2252 1.8966 98.2252 4.23619V26.4678C98.2252 28.8074 96.3292 30.704 93.9902 30.704H71.765C69.4261 30.704 67.53 28.8074 67.53 26.4678V4.23618Z" fill="black"/>
<path d="M101.295 4.23618C101.295 1.8966 103.191 0 105.53 0H127.755C130.094 0 131.99 1.8966 131.99 4.23619V26.4678C131.99 28.8074 130.094 30.704 127.755 30.704H105.53C103.191 30.704 101.295 28.8074 101.295 26.4678V4.23618Z" fill="black"/>
<path d="M135.06 4.23618C135.06 1.8966 136.956 0 139.295 0H161.52C163.859 0 165.755 1.8966 165.755 4.23619V26.4678C165.755 28.8074 163.859 30.704 161.52 30.704H139.295C136.956 30.704 135.06 28.8074 135.06 26.4678V4.23618Z" fill="black"/>
<path d="M168.825 4.23618C168.825 1.8966 170.721 0 173.06 0H195.285C197.624 0 199.52 1.8966 199.52 4.23619V26.4678C199.52 28.8074 197.624 30.704 195.285 30.704H173.06C170.721 30.704 168.825 28.8074 168.825 26.4678V4.23618Z" fill="black"/>
<path d="M202.59 4.23618C202.59 1.8966 204.486 0 206.825 0H229.05C231.389 0 233.285 1.8966 233.285 4.23619V26.4678C233.285 28.8074 231.389 30.704 229.05 30.704H206.825C204.486 30.704 202.59 28.8074 202.59 26.4678V4.23618Z" fill="black"/>
<path d="M236.355 4.23618C236.355 1.8966 238.251 0 240.59 0H262.815C265.154 0 267.05 1.8966 267.05 4.23619V26.4678C267.05 28.8074 265.154 30.704 262.815 30.704H240.59C238.251 30.704 236.355 28.8074 236.355 26.4678V4.23618Z" fill="black"/>
<path d="M270.191 4.23618C270.191 1.8966 272.087 0 274.426 0H296.652C298.991 0 300.887 1.8966 300.887 4.23619V26.4678C300.887 28.8074 298.991 30.704 296.652 30.704H274.426C272.087 30.704 270.191 28.8074 270.191 26.4678V4.23618Z" fill="black"/>
<path d="M0 38.0109C0 35.6713 1.89606 33.7747 4.23497 33.7747H26.4602C28.7991 33.7747 30.6952 35.6713 30.6952 38.0109V60.2425C30.6952 62.5821 28.7991 64.4787 26.4602 64.4787H4.23497C1.89606 64.4787 0 62.5821 0 60.2425V38.0109Z" fill="black"/>
<path d="M33.765 38.0109C33.765 35.6713 35.6611 33.7747 38 33.7747H60.2252C62.5641 33.7747 64.4602 35.6713 64.4602 38.0109V60.2425C64.4602 62.5821 62.5641 64.4787 60.2252 64.4787H38C35.6611 64.4787 33.765 62.5821 33.765 60.2425V38.0109Z" fill="black"/>
<path d="M67.53 38.0109C67.53 35.6713 69.4261 33.7747 71.765 33.7747H93.9902C96.3292 33.7747 98.2252 35.6713 98.2252 38.0109V60.2425C98.2252 62.5821 96.3292 64.4787 93.9902 64.4787H71.765C69.4261 64.4787 67.53 62.5821 67.53 60.2425V38.0109Z" fill="black"/>
<path d="M101.295 38.0109C101.295 35.6713 103.191 33.7747 105.53 33.7747H127.755C130.094 33.7747 131.99 35.6713 131.99 38.0109V60.2425C131.99 62.5821 130.094 64.4787 127.755 64.4787H105.53C103.191 64.4787 101.295 62.5821 101.295 60.2425V38.0109Z" fill="black"/>
<path d="M135.06 38.0109C135.06 35.6713 136.956 33.7747 139.295 33.7747H161.52C163.859 33.7747 165.755 35.6713 165.755 38.0109V60.2425C165.755 62.5821 163.859 64.4787 161.52 64.4787H139.295C136.956 64.4787 135.06 62.5821 135.06 60.2425V38.0109Z" fill="black"/>
<path d="M168.825 38.0109C168.825 35.6713 170.721 33.7747 173.06 33.7747H195.285C197.624 33.7747 199.52 35.6713 199.52 38.0109V60.2425C199.52 62.5821 197.624 64.4787 195.285 64.4787H173.06C170.721 64.4787 168.825 62.5821 168.825 60.2425V38.0109Z" fill="black"/>
<path d="M202.59 38.0109C202.59 35.6713 204.486 33.7747 206.825 33.7747H229.05C231.389 33.7747 233.285 35.6713 233.285 38.0109V60.2425C233.285 62.5821 231.389 64.4787 229.05 64.4787H206.825C204.486 64.4787 202.59 62.5821 202.59 60.2425V38.0109Z" fill="black"/>
<path d="M236.355 38.0109C236.355 35.6713 238.251 33.7747 240.59 33.7747H262.815C265.154 33.7747 267.05 35.6713 267.05 38.0109V60.2425C267.05 62.5821 265.154 64.4787 262.815 64.4787H240.59C238.251 64.4787 236.355 62.5821 236.355 60.2425V38.0109Z" fill="black"/>
<path d="M270.191 38.1257C270.191 35.7861 272.087 33.8895 274.426 33.8895H296.652C298.991 33.8895 300.887 35.7861 300.887 38.1257V60.3573C300.887 62.6969 298.991 64.5935 296.652 64.5935H274.426C272.087 64.5935 270.191 62.6969 270.191 60.3573V38.1257Z" fill="black"/>
<path d="M0 71.7856C0 69.446 1.89606 67.5494 4.23497 67.5494H26.4602C28.7991 67.5494 30.6952 69.446 30.6952 71.7856V94.0172C30.6952 96.3568 28.7991 98.2534 26.4602 98.2534H4.23497C1.89606 98.2534 0 96.3568 0 94.0172V71.7856Z" fill="black"/>
<path d="M33.765 71.7856C33.765 69.446 35.6611 67.5494 38 67.5494H60.2252C62.5641 67.5494 64.4602 69.446 64.4602 71.7856V94.0172C64.4602 96.3568 62.5641 98.2534 60.2252 98.2534H38C35.6611 98.2534 33.765 96.3568 33.765 94.0172V71.7856Z" fill="black"/>
<path d="M0 105.56C0 103.221 1.89606 101.324 4.23497 101.324H26.4602C28.7991 101.324 30.6952 103.221 30.6952 105.56V127.792C30.6952 130.132 28.7991 132.028 26.4602 132.028H4.23497C1.89606 132.028 0 130.132 0 127.792V105.56Z" fill="black"/>
<path d="M33.765 105.56C33.765 103.221 35.6611 101.324 38 101.324H60.2252C62.5641 101.324 64.4602 103.221 64.4602 105.56V127.792C64.4602 130.132 62.5641 132.028 60.2252 132.028H38C35.6611 132.028 33.765 130.132 33.765 127.792V105.56Z" fill="black"/>
<path d="M0 139.335C0 136.995 1.89606 135.099 4.23497 135.099H26.4602C28.7991 135.099 30.6952 136.995 30.6952 139.335V161.566C30.6952 163.906 28.7991 165.803 26.4602 165.803H4.23497C1.89606 165.803 0 163.906 0 161.566V139.335Z" fill="black"/>
<path d="M33.765 139.335C33.765 136.995 35.6611 135.099 38 135.099H60.2252C62.5641 135.099 64.4602 136.995 64.4602 139.335V161.566C64.4602 163.906 62.5641 165.803 60.2252 165.803H38C35.6611 165.803 33.765 163.906 33.765 161.566V139.335Z" fill="black"/>
<path d="M0 173.11C0 170.77 1.89606 168.874 4.23497 168.874H26.4602C28.7991 168.874 30.6952 170.77 30.6952 173.11V195.341C30.6952 197.681 28.7991 199.578 26.4602 199.578H4.23497C1.89606 199.578 0 197.681 0 195.341V173.11Z" fill="black"/>
<path d="M33.765 173.11C33.765 170.77 35.6611 168.874 38 168.874H60.2252C62.5641 168.874 64.4602 170.77 64.4602 173.11V195.341C64.4602 197.681 62.5641 199.578 60.2252 199.578H38C35.6611 199.578 33.765 197.681 33.765 195.341V173.11Z" fill="black"/>
<path d="M0 206.884C0 204.545 1.89606 202.648 4.23497 202.648H26.4602C28.7991 202.648 30.6952 204.545 30.6952 206.884V229.116C30.6952 231.456 28.7991 233.352 26.4602 233.352H4.23497C1.89606 233.352 0 231.456 0 229.116V206.884Z" fill="black"/>
<path d="M33.765 206.884C33.765 204.545 35.6611 202.648 38 202.648H60.2252C62.5641 202.648 64.4602 204.545 64.4602 206.884V229.116C64.4602 231.456 62.5641 233.352 60.2252 233.352H38C35.6611 233.352 33.765 231.456 33.765 229.116V206.884Z" fill="black"/>
<path d="M67.53 206.884C67.53 204.545 69.4261 202.648 71.765 202.648H93.9902C96.3292 202.648 98.2252 204.545 98.2252 206.884V229.116C98.2252 231.456 96.3292 233.352 93.9902 233.352H71.765C69.4261 233.352 67.53 231.456 67.53 229.116V206.884Z" fill="black"/>
<path d="M101.295 206.884C101.295 204.545 103.191 202.648 105.53 202.648H127.755C130.094 202.648 131.99 204.545 131.99 206.884V229.116C131.99 231.456 130.094 233.352 127.755 233.352H105.53C103.191 233.352 101.295 231.456 101.295 229.116V206.884Z" fill="black"/>
<path d="M135.06 206.884C135.06 204.545 136.956 202.648 139.295 202.648H161.52C163.859 202.648 165.755 204.545 165.755 206.884V229.116C165.755 231.456 163.859 233.352 161.52 233.352H139.295C136.956 233.352 135.06 231.456 135.06 229.116V206.884Z" fill="black"/>
<path d="M168.825 206.884C168.825 204.545 170.721 202.648 173.06 202.648H195.285C197.624 202.648 199.52 204.545 199.52 206.884V229.116C199.52 231.456 197.624 233.352 195.285 233.352H173.06C170.721 233.352 168.825 231.456 168.825 229.116V206.884Z" fill="black"/>
<path d="M202.59 206.884C202.59 204.545 204.486 202.648 206.825 202.648H229.05C231.389 202.648 233.285 204.545 233.285 206.884V229.116C233.285 231.456 231.389 233.352 229.05 233.352H206.825C204.486 233.352 202.59 231.456 202.59 229.116V206.884Z" fill="black"/>
<path d="M236.355 206.884C236.355 204.545 238.251 202.648 240.59 202.648H262.815C265.154 202.648 267.05 204.545 267.05 206.884V229.116C267.05 231.456 265.154 233.352 262.815 233.352H240.59C238.251 233.352 236.355 231.456 236.355 229.116V206.884Z" fill="black"/>
<path d="M0 240.659C0 238.319 1.89606 236.423 4.23497 236.423H26.4602C28.7991 236.423 30.6952 238.319 30.6952 240.659V262.89C30.6952 265.23 28.7991 267.127 26.4602 267.127H4.23497C1.89606 267.127 0 265.23 0 262.89V240.659Z" fill="black"/>
<path d="M33.765 240.659C33.765 238.319 35.6611 236.423 38 236.423H60.2252C62.5641 236.423 64.4602 238.319 64.4602 240.659V262.89C64.4602 265.23 62.5641 267.127 60.2252 267.127H38C35.6611 267.127 33.765 265.23 33.765 262.89V240.659Z" fill="black"/>
<path d="M67.53 240.659C67.53 238.319 69.4261 236.423 71.765 236.423H93.9902C96.3292 236.423 98.2252 238.319 98.2252 240.659V262.89C98.2252 265.23 96.3292 267.127 93.9902 267.127H71.765C69.4261 267.127 67.53 265.23 67.53 262.89V240.659Z" fill="black"/>
<path d="M101.295 240.659C101.295 238.319 103.191 236.423 105.53 236.423H127.755C130.094 236.423 131.99 238.319 131.99 240.659V262.89C131.99 265.23 130.094 267.127 127.755 267.127H105.53C103.191 267.127 101.295 265.23 101.295 262.89V240.659Z" fill="black"/>
<path d="M135.06 240.659C135.06 238.319 136.956 236.423 139.295 236.423H161.52C163.859 236.423 165.755 238.319 165.755 240.659V262.89C165.755 265.23 163.859 267.127 161.52 267.127H139.295C136.956 267.127 135.06 265.23 135.06 262.89V240.659Z" fill="black"/>
<path d="M168.825 240.659C168.825 238.319 170.721 236.423 173.06 236.423H195.285C197.624 236.423 199.52 238.319 199.52 240.659V262.89C199.52 265.23 197.624 267.127 195.285 267.127H173.06C170.721 267.127 168.825 265.23 168.825 262.89V240.659Z" fill="black"/>
<path d="M202.59 240.659C202.59 238.319 204.486 236.423 206.825 236.423H229.05C231.389 236.423 233.285 238.319 233.285 240.659V262.89C233.285 265.23 231.389 267.127 229.05 267.127H206.825C204.486 267.127 202.59 265.23 202.59 262.89V240.659Z" fill="black"/>
<path d="M236.355 240.659C236.355 238.319 238.251 236.423 240.59 236.423H262.815C265.154 236.423 267.05 238.319 267.05 240.659V262.89C267.05 265.23 265.154 267.127 262.815 267.127H240.59C238.251 267.127 236.355 265.23 236.355 262.89V240.659Z" fill="black"/>
<path d="M0 274.434C0 272.094 1.89606 270.197 4.23497 270.197H26.4602C28.7991 270.197 30.6952 272.094 30.6952 274.434V296.665C30.6952 299.005 28.7991 300.901 26.4602 300.901H4.23497C1.89606 300.901 0 299.005 0 296.665V274.434Z" fill="black"/>
<path d="M33.765 274.434C33.765 272.094 35.6611 270.197 38 270.197H60.2252C62.5641 270.197 64.4602 272.094 64.4602 274.434V296.665C64.4602 299.005 62.5641 300.901 60.2252 300.901H38C35.6611 300.901 33.765 299.005 33.765 296.665V274.434Z" fill="black"/>
<path d="M0 308.208C0 305.869 1.89606 303.972 4.23497 303.972H26.4602C28.7991 303.972 30.6952 305.869 30.6952 308.208V330.44C30.6952 332.779 28.7991 334.676 26.4602 334.676H4.23497C1.89606 334.676 0 332.779 0 330.44V308.208Z" fill="black"/>
<path d="M33.765 308.208C33.765 305.869 35.6611 303.972 38 303.972H60.2252C62.5641 303.972 64.4602 305.869 64.4602 308.208V330.44C64.4602 332.779 62.5641 334.676 60.2252 334.676H38C35.6611 334.676 33.765 332.779 33.765 330.44V308.208Z" fill="black"/>
<path d="M0 341.983C0 339.644 1.89606 337.747 4.23497 337.747H26.4602C28.7991 337.747 30.6952 339.644 30.6952 341.983V364.215C30.6952 366.554 28.7991 368.451 26.4602 368.451H4.23497C1.89606 368.451 0 366.554 0 364.215V341.983Z" fill="black"/>
<path d="M33.765 341.983C33.765 339.644 35.6611 337.747 38 337.747H60.2252C62.5641 337.747 64.4602 339.644 64.4602 341.983V364.215C64.4602 366.554 62.5641 368.451 60.2252 368.451H38C35.6611 368.451 33.765 366.554 33.765 364.215V341.983Z" fill="black"/>
<path d="M0 375.758C0 373.418 1.89606 371.521 4.23497 371.521H26.4602C28.7991 371.521 30.6952 373.418 30.6952 375.758V397.989C30.6952 400.329 28.7991 402.225 26.4602 402.225H4.23497C1.89606 402.225 0 400.329 0 397.989V375.758Z" fill="black"/>
<path d="M33.765 375.758C33.765 373.418 35.6611 371.521 38 371.521H60.2252C62.5641 371.521 64.4602 373.418 64.4602 375.758V397.989C64.4602 400.329 62.5641 402.225 60.2252 402.225H38C35.6611 402.225 33.765 400.329 33.765 397.989V375.758Z" fill="black"/>
<path d="M0 409.532C0 407.193 1.89606 405.296 4.23497 405.296H26.4602C28.7991 405.296 30.6952 407.193 30.6952 409.532V431.764C30.6952 434.103 28.7991 436 26.4602 436H4.23497C1.89606 436 0 434.103 0 431.764V409.532Z" fill="black"/>
<path d="M33.765 409.532C33.765 407.193 35.6611 405.296 38 405.296H60.2252C62.5641 405.296 64.4602 407.193 64.4602 409.532V431.764C64.4602 434.103 62.5641 436 60.2252 436H38C35.6611 436 33.765 434.103 33.765 431.764V409.532Z" fill="black"/>
<path d="M445.792 4.23618C445.792 1.8966 447.688 0 450.027 0H472.253C474.591 0 476.488 1.8966 476.488 4.23619V26.4678C476.488 28.8074 474.591 30.704 472.253 30.704H450.027C447.688 30.704 445.792 28.8074 445.792 26.4678V4.23618Z" fill="black"/>
<path d="M479.557 4.23618C479.557 1.8966 481.454 0 483.792 0H506.018C508.357 0 510.253 1.8966 510.253 4.23619V26.4678C510.253 28.8074 508.357 30.704 506.018 30.704H483.792C481.454 30.704 479.557 28.8074 479.557 26.4678V4.23618Z" fill="black"/>
<path d="M412.027 38.0109C412.027 35.6714 413.923 33.7748 416.262 33.7748H438.488C440.826 33.7748 442.723 35.6714 442.723 38.0109V60.2426C442.723 62.5821 440.826 64.4787 438.488 64.4787H416.262C413.923 64.4787 412.027 62.5821 412.027 60.2426V38.0109Z" fill="black"/>
<path d="M445.792 38.0109C445.792 35.6714 447.688 33.7748 450.027 33.7748H472.253C474.591 33.7748 476.488 35.6714 476.488 38.0109V60.2426C476.488 62.5821 474.591 64.4787 472.253 64.4787H450.027C447.688 64.4787 445.792 62.5821 445.792 60.2426V38.0109Z" fill="black"/>
<path d="M479.557 38.0109C479.557 35.6714 481.454 33.7748 483.792 33.7748H506.018C508.357 33.7748 510.253 35.6714 510.253 38.0109V60.2426C510.253 62.5821 508.357 64.4787 506.018 64.4787H483.792C481.454 64.4787 479.557 62.5821 479.557 60.2426V38.0109Z" fill="black"/>
<path d="M513.322 38.0109C513.322 35.6714 515.218 33.7748 517.557 33.7748H539.783C542.122 33.7748 544.018 35.6714 544.018 38.0109V60.2426C544.018 62.5821 542.122 64.4787 539.783 64.4787H517.557C515.218 64.4787 513.322 62.5821 513.322 60.2426V38.0109Z" fill="black"/>
<path d="M412.027 71.7854C412.027 69.4458 413.923 67.5492 416.262 67.5492H438.488C440.826 67.5492 442.723 69.4458 442.723 71.7854V94.017C442.723 96.3566 440.826 98.2532 438.488 98.2532H416.262C413.923 98.2532 412.027 96.3566 412.027 94.017V71.7854Z" fill="black"/>
<path d="M445.792 71.7854C445.792 69.4458 447.688 67.5492 450.027 67.5492H472.253C474.591 67.5492 476.488 69.4458 476.488 71.7854V94.017C476.488 96.3566 474.591 98.2532 472.253 98.2532H450.027C447.688 98.2532 445.792 96.3566 445.792 94.017V71.7854Z" fill="black"/>
<path d="M479.557 71.7854C479.557 69.4458 481.454 67.5492 483.792 67.5492H506.018C508.357 67.5492 510.253 69.4458 510.253 71.7854V94.017C510.253 96.3566 508.357 98.2532 506.018 98.2532H483.792C481.454 98.2532 479.557 96.3566 479.557 94.017V71.7854Z" fill="black"/>
<path d="M513.322 71.7854C513.322 69.4458 515.218 67.5492 517.557 67.5492H539.783C542.122 67.5492 544.018 69.4458 544.018 71.7854V94.017C544.018 96.3566 542.122 98.2532 539.783 98.2532H517.557C515.218 98.2532 513.322 96.3566 513.322 94.017V71.7854Z" fill="black"/>
<path d="M378.262 105.56C378.262 103.221 380.158 101.324 382.497 101.324H404.723C407.061 101.324 408.958 103.221 408.958 105.56V127.792C408.958 130.132 407.061 132.028 404.723 132.028H382.497C380.158 132.028 378.262 130.132 378.262 127.792V105.56Z" fill="black"/>
<path d="M412.027 105.56C412.027 103.221 413.923 101.324 416.262 101.324H438.488C440.826 101.324 442.723 103.221 442.723 105.56V127.792C442.723 130.132 440.826 132.028 438.488 132.028H416.262C413.923 132.028 412.027 130.132 412.027 127.792V105.56Z" fill="black"/>
<path d="M513.322 105.56C513.322 103.221 515.218 101.324 517.557 101.324H539.783C542.122 101.324 544.018 103.221 544.018 105.56V127.792C544.018 130.132 542.122 132.028 539.783 132.028H517.557C515.218 132.028 513.322 130.132 513.322 127.792V105.56Z" fill="black"/>
<path d="M547.087 105.56C547.087 103.221 548.984 101.324 551.322 101.324H573.548C575.887 101.324 577.783 103.221 577.783 105.56V127.792C577.783 130.132 575.887 132.028 573.548 132.028H551.322C548.984 132.028 547.087 130.132 547.087 127.792V105.56Z" fill="black"/>
<path d="M378.262 139.335C378.262 136.995 380.158 135.099 382.497 135.099H404.723C407.061 135.099 408.958 136.995 408.958 139.335V161.567C408.958 163.906 407.061 165.803 404.723 165.803H382.497C380.158 165.803 378.262 163.906 378.262 161.567V139.335Z" fill="black"/>
<path d="M412.027 139.335C412.027 136.995 413.923 135.099 416.262 135.099H438.488C440.826 135.099 442.723 136.995 442.723 139.335V161.567C442.723 163.906 440.826 165.803 438.488 165.803H416.262C413.923 165.803 412.027 163.906 412.027 161.567V139.335Z" fill="black"/>
<path d="M513.322 139.335C513.322 136.995 515.218 135.099 517.557 135.099H539.783C542.122 135.099 544.018 136.995 544.018 139.335V161.567C544.018 163.906 542.122 165.803 539.783 165.803H517.557C515.218 165.803 513.322 163.906 513.322 161.567V139.335Z" fill="black"/>
<path d="M547.087 139.335C547.087 136.995 548.984 135.099 551.322 135.099H573.548C575.887 135.099 577.783 136.995 577.783 139.335V161.567C577.783 163.906 575.887 165.803 573.548 165.803H551.322C548.984 165.803 547.087 163.906 547.087 161.567V139.335Z" fill="black"/>
<path d="M378.262 173.11C378.262 170.77 380.158 168.873 382.497 168.873H404.723C407.061 168.873 408.958 170.77 408.958 173.11V195.341C408.958 197.681 407.061 199.577 404.723 199.577H382.497C380.158 199.577 378.262 197.681 378.262 195.341V173.11Z" fill="black"/>
<path d="M412.027 173.11C412.027 170.77 413.923 168.873 416.262 168.873H438.488C440.826 168.873 442.723 170.77 442.723 173.11V195.341C442.723 197.681 440.826 199.577 438.488 199.577H416.262C413.923 199.577 412.027 197.681 412.027 195.341V173.11Z" fill="black"/>
<path d="M513.322 173.11C513.322 170.77 515.218 168.873 517.557 168.873H539.783C542.122 168.873 544.018 170.77 544.018 173.11V195.341C544.018 197.681 542.122 199.577 539.783 199.577H517.557C515.218 199.577 513.322 197.681 513.322 195.341V173.11Z" fill="black"/>
<path d="M547.087 173.11C547.087 170.77 548.984 168.873 551.322 168.873H573.548C575.887 168.873 577.783 170.77 577.783 173.11V195.341C577.783 197.681 575.887 199.577 573.548 199.577H551.322C548.984 199.577 547.087 197.681 547.087 195.341V173.11Z" fill="black"/>
<path d="M344.497 206.884C344.497 204.545 346.393 202.648 348.732 202.648H370.958C373.296 202.648 375.193 204.545 375.193 206.884V229.116C375.193 231.455 373.296 233.352 370.958 233.352H348.732C346.393 233.352 344.497 231.455 344.497 229.116V206.884Z" fill="black"/>
<path d="M378.262 206.884C378.262 204.545 380.158 202.648 382.497 202.648H404.723C407.061 202.648 408.958 204.545 408.958 206.884V229.116C408.958 231.455 407.061 233.352 404.723 233.352H382.497C380.158 233.352 378.262 231.455 378.262 229.116V206.884Z" fill="black"/>
<path d="M547.087 206.884C547.087 204.545 548.984 202.648 551.322 202.648H573.548C575.887 202.648 577.783 204.545 577.783 206.884V229.116C577.783 231.455 575.887 233.352 573.548 233.352H551.322C548.984 233.352 547.087 231.455 547.087 229.116V206.884Z" fill="black"/>
<path d="M580.853 206.884C580.853 204.545 582.749 202.648 585.088 202.648H607.313C609.652 202.648 611.548 204.545 611.548 206.884V229.116C611.548 231.455 609.652 233.352 607.313 233.352H585.088C582.749 233.352 580.853 231.455 580.853 229.116V206.884Z" fill="black"/>
<path d="M344.497 240.659C344.497 238.319 346.393 236.423 348.732 236.423H370.958C373.296 236.423 375.193 238.319 375.193 240.659V262.89C375.193 265.23 373.296 267.127 370.958 267.127H348.732C346.393 267.127 344.497 265.23 344.497 262.89V240.659Z" fill="black"/>
<path d="M378.262 240.659C378.262 238.319 380.158 236.423 382.497 236.423H404.723C407.061 236.423 408.958 238.319 408.958 240.659V262.89C408.958 265.23 407.061 267.127 404.723 267.127H382.497C380.158 267.127 378.262 265.23 378.262 262.89V240.659Z" fill="black"/>
<path d="M547.087 240.659C547.087 238.319 548.984 236.423 551.322 236.423H573.548C575.887 236.423 577.783 238.319 577.783 240.659V262.89C577.783 265.23 575.887 267.127 573.548 267.127H551.322C548.984 267.127 547.087 265.23 547.087 262.89V240.659Z" fill="black"/>
<path d="M580.853 240.659C580.853 238.319 582.749 236.423 585.088 236.423H607.313C609.652 236.423 611.548 238.319 611.548 240.659V262.89C611.548 265.23 609.652 267.127 607.313 267.127H585.088C582.749 267.127 580.853 265.23 580.853 262.89V240.659Z" fill="black"/>
<path d="M310.732 274.434C310.732 272.094 312.628 270.198 314.967 270.198H337.193C339.531 270.198 341.428 272.094 341.428 274.434V296.665C341.428 299.005 339.531 300.901 337.193 300.901H314.967C312.628 300.901 310.732 299.005 310.732 296.665V274.434Z" fill="black"/>
<path d="M344.497 274.434C344.497 272.094 346.393 270.198 348.732 270.198H370.958C373.296 270.198 375.193 272.094 375.193 274.434V296.665C375.193 299.005 373.296 300.901 370.958 300.901H348.732C346.393 300.901 344.497 299.005 344.497 296.665V274.434Z" fill="black"/>
<path d="M378.262 274.434C378.262 272.094 380.158 270.198 382.497 270.198H404.723C407.061 270.198 408.958 272.094 408.958 274.434V296.665C408.958 299.005 407.061 300.901 404.723 300.901H382.497C380.158 300.901 378.262 299.005 378.262 296.665V274.434Z" fill="black"/>
<path d="M412.027 274.434C412.027 272.094 413.923 270.198 416.262 270.198H438.488C440.826 270.198 442.723 272.094 442.723 274.434V296.665C442.723 299.005 440.826 300.901 438.488 300.901H416.262C413.923 300.901 412.027 299.005 412.027 296.665V274.434Z" fill="black"/>
<path d="M445.792 274.434C445.792 272.094 447.688 270.198 450.027 270.198H472.253C474.591 270.198 476.488 272.094 476.488 274.434V296.665C476.488 299.005 474.591 300.901 472.253 300.901H450.027C447.688 300.901 445.792 299.005 445.792 296.665V274.434Z" fill="black"/>
<path d="M479.557 274.434C479.557 272.094 481.454 270.198 483.792 270.198H506.018C508.357 270.198 510.253 272.094 510.253 274.434V296.665C510.253 299.005 508.357 300.901 506.018 300.901H483.792C481.454 300.901 479.557 299.005 479.557 296.665V274.434Z" fill="black"/>
<path d="M513.322 274.434C513.322 272.094 515.218 270.198 517.557 270.198H539.783C542.122 270.198 544.018 272.094 544.018 274.434V296.665C544.018 299.005 542.122 300.901 539.783 300.901H517.557C515.218 300.901 513.322 299.005 513.322 296.665V274.434Z" fill="black"/>
<path d="M547.087 274.434C547.087 272.094 548.984 270.198 551.322 270.198H573.548C575.887 270.198 577.783 272.094 577.783 274.434V296.665C577.783 299.005 575.887 300.901 573.548 300.901H551.322C548.984 300.901 547.087 299.005 547.087 296.665V274.434Z" fill="black"/>
<path d="M580.853 274.434C580.853 272.094 582.749 270.198 585.088 270.198H607.313C609.652 270.198 611.548 272.094 611.548 274.434V296.665C611.548 299.005 609.652 300.901 607.313 300.901H585.088C582.749 300.901 580.853 299.005 580.853 296.665V274.434Z" fill="black"/>
<path d="M614.617 274.434C614.617 272.094 616.513 270.198 618.852 270.198H641.078C643.417 270.198 645.313 272.094 645.313 274.434V296.665C645.313 299.005 643.417 300.901 641.078 300.901H618.852C616.513 300.901 614.617 299.005 614.617 296.665V274.434Z" fill="black"/>
<path d="M310.732 308.208C310.732 305.869 312.628 303.972 314.967 303.972H337.193C339.531 303.972 341.428 305.869 341.428 308.208V330.44C341.428 332.779 339.531 334.676 337.193 334.676H314.967C312.628 334.676 310.732 332.779 310.732 330.44V308.208Z" fill="black"/>
<path d="M344.497 308.208C344.497 305.869 346.393 303.972 348.732 303.972H370.958C373.296 303.972 375.193 305.869 375.193 308.208V330.44C375.193 332.779 373.296 334.676 370.958 334.676H348.732C346.393 334.676 344.497 332.779 344.497 330.44V308.208Z" fill="black"/>
<path d="M378.262 308.208C378.262 305.869 380.158 303.972 382.497 303.972H404.723C407.061 303.972 408.958 305.869 408.958 308.208V330.44C408.958 332.779 407.061 334.676 404.723 334.676H382.497C380.158 334.676 378.262 332.779 378.262 330.44V308.208Z" fill="black"/>
<path d="M412.027 308.208C412.027 305.869 413.923 303.972 416.262 303.972H438.488C440.826 303.972 442.723 305.869 442.723 308.208V330.44C442.723 332.779 440.826 334.676 438.488 334.676H416.262C413.923 334.676 412.027 332.779 412.027 330.44V308.208Z" fill="black"/>
<path d="M445.792 308.208C445.792 305.869 447.688 303.972 450.027 303.972H472.253C474.591 303.972 476.488 305.869 476.488 308.208V330.44C476.488 332.779 474.591 334.676 472.253 334.676H450.027C447.688 334.676 445.792 332.779 445.792 330.44V308.208Z" fill="black"/>
<path d="M479.557 308.208C479.557 305.869 481.454 303.972 483.792 303.972H506.018C508.357 303.972 510.253 305.869 510.253 308.208V330.44C510.253 332.779 508.357 334.676 506.018 334.676H483.792C481.454 334.676 479.557 332.779 479.557 330.44V308.208Z" fill="black"/>
<path d="M513.322 308.208C513.322 305.869 515.218 303.972 517.557 303.972H539.783C542.122 303.972 544.018 305.869 544.018 308.208V330.44C544.018 332.779 542.122 334.676 539.783 334.676H517.557C515.218 334.676 513.322 332.779 513.322 330.44V308.208Z" fill="black"/>
<path d="M547.087 308.208C547.087 305.869 548.984 303.972 551.322 303.972H573.548C575.887 303.972 577.783 305.869 577.783 308.208V330.44C577.783 332.779 575.887 334.676 573.548 334.676H551.322C548.984 334.676 547.087 332.779 547.087 330.44V308.208Z" fill="black"/>
<path d="M580.853 308.208C580.853 305.869 582.749 303.972 585.088 303.972H607.313C609.652 303.972 611.548 305.869 611.548 308.208V330.44C611.548 332.779 609.652 334.676 607.313 334.676H585.088C582.749 334.676 580.853 332.779 580.853 330.44V308.208Z" fill="black"/>
<path d="M614.617 308.208C614.617 305.869 616.513 303.972 618.852 303.972H641.078C643.417 303.972 645.313 305.869 645.313 308.208V330.44C645.313 332.779 643.417 334.676 641.078 334.676H618.852C616.513 334.676 614.617 332.779 614.617 330.44V308.208Z" fill="black"/>
<path d="M276.967 341.983C276.967 339.643 278.863 337.747 281.202 337.747H303.428C305.766 337.747 307.663 339.643 307.663 341.983V364.215C307.663 366.554 305.766 368.451 303.428 368.451H281.202C278.863 368.451 276.967 366.554 276.967 364.215V341.983Z" fill="black"/>
<path d="M310.732 341.983C310.732 339.643 312.628 337.747 314.967 337.747H337.193C339.531 337.747 341.428 339.643 341.428 341.983V364.215C341.428 366.554 339.531 368.451 337.193 368.451H314.967C312.628 368.451 310.732 366.554 310.732 364.215V341.983Z" fill="black"/>
<path d="M344.497 341.983C344.497 339.643 346.393 337.747 348.732 337.747H370.958C373.296 337.747 375.193 339.643 375.193 341.983V364.215C375.193 366.554 373.296 368.451 370.958 368.451H348.732C346.393 368.451 344.497 366.554 344.497 364.215V341.983Z" fill="black"/>
<path d="M580.853 341.983C580.853 339.643 582.749 337.747 585.088 337.747H607.313C609.652 337.747 611.548 339.643 611.548 341.983V364.215C611.548 366.554 609.652 368.451 607.313 368.451H585.088C582.749 368.451 580.853 366.554 580.853 364.215V341.983Z" fill="black"/>
<path d="M614.617 341.983C614.617 339.643 616.513 337.747 618.852 337.747H641.078C643.417 337.747 645.313 339.643 645.313 341.983V364.215C645.313 366.554 643.417 368.451 641.078 368.451H618.852C616.513 368.451 614.617 366.554 614.617 364.215V341.983Z" fill="black"/>
<path d="M648.382 341.983C648.382 339.643 650.278 337.747 652.617 337.747H674.843C677.182 337.747 679.078 339.643 679.078 341.983V364.215C679.078 366.554 677.182 368.451 674.843 368.451H652.617C650.278 368.451 648.382 366.554 648.382 364.215V341.983Z" fill="black"/>
<path d="M276.967 375.758C276.967 373.418 278.863 371.522 281.202 371.522H303.428C305.766 371.522 307.663 373.418 307.663 375.758V397.99C307.663 400.329 305.766 402.226 303.428 402.226H281.202C278.863 402.226 276.967 400.329 276.967 397.99V375.758Z" fill="black"/>
<path d="M310.732 375.758C310.732 373.418 312.628 371.522 314.967 371.522H337.193C339.531 371.522 341.428 373.418 341.428 375.758V397.99C341.428 400.329 339.531 402.226 337.193 402.226H314.967C312.628 402.226 310.732 400.329 310.732 397.99V375.758Z" fill="black"/>
<path d="M614.617 375.758C614.617 373.418 616.513 371.522 618.852 371.522H641.078C643.417 371.522 645.313 373.418 645.313 375.758V397.99C645.313 400.329 643.417 402.226 641.078 402.226H618.852C616.513 402.226 614.617 400.329 614.617 397.99V375.758Z" fill="black"/>
<path d="M648.382 375.758C648.382 373.418 650.278 371.522 652.617 371.522H674.843C677.182 371.522 679.078 373.418 679.078 375.758V397.99C679.078 400.329 677.182 402.226 674.843 402.226H652.617C650.278 402.226 648.382 400.329 648.382 397.99V375.758Z" fill="black"/>
<path d="M276.967 409.532C276.967 407.193 278.863 405.296 281.202 405.296H303.428C305.766 405.296 307.663 407.193 307.663 409.532V431.764C307.663 434.103 305.766 436 303.428 436H281.202C278.863 436 276.967 434.103 276.967 431.764V409.532Z" fill="black"/>
<path d="M310.732 409.532C310.732 407.193 312.628 405.296 314.967 405.296H337.193C339.531 405.296 341.428 407.193 341.428 409.532V431.764C341.428 434.103 339.531 436 337.193 436H314.967C312.628 436 310.732 434.103 310.732 431.764V409.532Z" fill="black"/>
<path d="M614.617 409.532C614.617 407.193 616.513 405.296 618.852 405.296H641.078C643.417 405.296 645.313 407.193 645.313 409.532V431.764C645.313 434.103 643.417 436 641.078 436H618.852C616.513 436 614.617 434.103 614.617 431.764V409.532Z" fill="black"/>
<path d="M648.382 409.532C648.382 407.193 650.278 405.296 652.617 405.296H674.843C677.182 405.296 679.078 407.193 679.078 409.532V431.764C679.078 434.103 677.182 436 674.843 436H652.617C650.278 436 648.382 434.103 648.382 431.764V409.532Z" fill="black"/>
<path d="M790.185 4.23618C790.185 1.8966 792.081 0 794.42 0H816.645C818.984 0 820.88 1.8966 820.88 4.23619V26.4678C820.88 28.8074 818.984 30.704 816.645 30.704H794.42C792.081 30.704 790.185 28.8074 790.185 26.4678V4.23618Z" fill="black"/>
<path d="M823.949 4.23618C823.949 1.8966 825.845 0 828.184 0H850.41C852.749 0 854.645 1.8966 854.645 4.23619V26.4678C854.645 28.8074 852.749 30.704 850.41 30.704H828.184C825.845 30.704 823.949 28.8074 823.949 26.4678V4.23618Z" fill="black"/>
<path d="M857.714 4.23618C857.714 1.8966 859.61 0 861.949 0H884.175C886.513 0 888.41 1.8966 888.41 4.23619V26.4678C888.41 28.8074 886.513 30.704 884.175 30.704H861.949C859.61 30.704 857.714 28.8074 857.714 26.4678V4.23618Z" fill="black"/>
<path d="M891.479 4.23618C891.479 1.8966 893.375 0 895.714 0H917.94C920.278 0 922.174 1.8966 922.174 4.23619V26.4678C922.174 28.8074 920.278 30.704 917.94 30.704H895.714C893.375 30.704 891.479 28.8074 891.479 26.4678V4.23618Z" fill="black"/>
<path d="M925.244 4.23618C925.244 1.8966 927.14 0 929.479 0H951.705C954.044 0 955.94 1.8966 955.94 4.23619V26.4678C955.94 28.8074 954.044 30.704 951.705 30.704H929.479C927.14 30.704 925.244 28.8074 925.244 26.4678V4.23618Z" fill="black"/>
<path d="M756.419 38.0109C756.419 35.6714 758.315 33.7748 760.654 33.7748H782.88C785.218 33.7748 787.115 35.6714 787.115 38.0109V60.2426C787.115 62.5821 785.218 64.4787 782.88 64.4787H760.654C758.315 64.4787 756.419 62.5821 756.419 60.2426V38.0109Z" fill="black"/>
<path d="M790.185 38.0109C790.185 35.6714 792.081 33.7748 794.42 33.7748H816.645C818.984 33.7748 820.88 35.6714 820.88 38.0109V60.2426C820.88 62.5821 818.984 64.4787 816.645 64.4787H794.42C792.081 64.4787 790.185 62.5821 790.185 60.2426V38.0109Z" fill="black"/>
<path d="M823.949 38.0109C823.949 35.6714 825.845 33.7748 828.184 33.7748H850.41C852.749 33.7748 854.645 35.6714 854.645 38.0109V60.2426C854.645 62.5821 852.749 64.4787 850.41 64.4787H828.184C825.845 64.4787 823.949 62.5821 823.949 60.2426V38.0109Z" fill="black"/>
<path d="M857.714 38.0109C857.714 35.6714 859.61 33.7748 861.949 33.7748H884.175C886.513 33.7748 888.41 35.6714 888.41 38.0109V60.2426C888.41 62.5821 886.513 64.4787 884.175 64.4787H861.949C859.61 64.4787 857.714 62.5821 857.714 60.2426V38.0109Z" fill="black"/>
<path d="M891.479 38.0109C891.479 35.6714 893.375 33.7748 895.714 33.7748H917.94C920.278 33.7748 922.174 35.6714 922.174 38.0109V60.2426C922.174 62.5821 920.278 64.4787 917.94 64.4787H895.714C893.375 64.4787 891.479 62.5821 891.479 60.2426V38.0109Z" fill="black"/>
<path d="M925.244 38.0109C925.244 35.6714 927.14 33.7748 929.479 33.7748H951.705C954.044 33.7748 955.94 35.6714 955.94 38.0109V60.2426C955.94 62.5821 954.044 64.4787 951.705 64.4787H929.479C927.14 64.4787 925.244 62.5821 925.244 60.2426V38.0109Z" fill="black"/>
<path d="M959.009 38.0109C959.009 35.6714 960.905 33.7748 963.244 33.7748H985.47C987.808 33.7748 989.705 35.6714 989.705 38.0109V60.2426C989.705 62.5821 987.808 64.4787 985.47 64.4787H963.244C960.905 64.4787 959.009 62.5821 959.009 60.2426V38.0109Z" fill="black"/>
<path d="M722.654 71.7854C722.654 69.4458 724.55 67.5492 726.889 67.5492H749.114C751.453 67.5492 753.349 69.4458 753.349 71.7854V94.017C753.349 96.3566 751.453 98.2532 749.114 98.2532H726.889C724.55 98.2532 722.654 96.3566 722.654 94.017V71.7854Z" fill="black"/>
<path d="M756.419 71.7854C756.419 69.4458 758.315 67.5492 760.654 67.5492H782.88C785.218 67.5492 787.115 69.4458 787.115 71.7854V94.017C787.115 96.3566 785.218 98.2532 782.88 98.2532H760.654C758.315 98.2532 756.419 96.3566 756.419 94.017V71.7854Z" fill="black"/>
<path d="M790.185 71.7854C790.185 69.4458 792.081 67.5492 794.42 67.5492H816.645C818.984 67.5492 820.88 69.4458 820.88 71.7854V94.017C820.88 96.3566 818.984 98.2532 816.645 98.2532H794.42C792.081 98.2532 790.185 96.3566 790.185 94.017V71.7854Z" fill="black"/>
<path d="M925.244 71.7854C925.244 69.4458 927.14 67.5492 929.479 67.5492H951.705C954.044 67.5492 955.94 69.4458 955.94 71.7854V94.017C955.94 96.3566 954.044 98.2532 951.705 98.2532H929.479C927.14 98.2532 925.244 96.3566 925.244 94.017V71.7854Z" fill="black"/>
<path d="M959.009 71.7854C959.009 69.4458 960.905 67.5492 963.244 67.5492H985.47C987.808 67.5492 989.705 69.4458 989.705 71.7854V94.017C989.705 96.3566 987.808 98.2532 985.47 98.2532H963.244C960.905 98.2532 959.009 96.3566 959.009 94.017V71.7854Z" fill="black"/>
<path d="M992.775 71.7854C992.775 69.4458 994.671 67.5492 997.01 67.5492H1019.23C1021.57 67.5492 1023.47 69.4458 1023.47 71.7854V94.017C1023.47 96.3566 1021.57 98.2532 1019.23 98.2532H997.01C994.671 98.2532 992.775 96.3566 992.775 94.017V71.7854Z" fill="black"/>
<path d="M688.889 105.56C688.889 103.221 690.785 101.324 693.124 101.324H715.349C717.688 101.324 719.584 103.221 719.584 105.56V127.792C719.584 130.132 717.688 132.028 715.349 132.028H693.124C690.785 132.028 688.889 130.132 688.889 127.792V105.56Z" fill="black"/>
<path d="M722.654 105.56C722.654 103.221 724.55 101.324 726.889 101.324H749.114C751.453 101.324 753.349 103.221 753.349 105.56V127.792C753.349 130.132 751.453 132.028 749.114 132.028H726.889C724.55 132.028 722.654 130.132 722.654 127.792V105.56Z" fill="black"/>
<path d="M756.419 105.56C756.419 103.221 758.315 101.324 760.654 101.324H782.88C785.218 101.324 787.115 103.221 787.115 105.56V127.792C787.115 130.132 785.218 132.028 782.88 132.028H760.654C758.315 132.028 756.419 130.132 756.419 127.792V105.56Z" fill="black"/>
<path d="M959.009 105.56C959.009 103.221 960.905 101.324 963.244 101.324H985.47C987.808 101.324 989.705 103.221 989.705 105.56V127.792C989.705 130.132 987.808 132.028 985.47 132.028H963.244C960.905 132.028 959.009 130.132 959.009 127.792V105.56Z" fill="black"/>
<path d="M992.775 105.56C992.775 103.221 994.671 101.324 997.01 101.324H1019.23C1021.57 101.324 1023.47 103.221 1023.47 105.56V127.792C1023.47 130.132 1021.57 132.028 1019.23 132.028H997.01C994.671 132.028 992.775 130.132 992.775 127.792V105.56Z" fill="black"/>
<path d="M1026.54 105.56C1026.54 103.221 1028.44 101.324 1030.77 101.324H1053C1055.34 101.324 1057.23 103.221 1057.23 105.56V127.792C1057.23 130.132 1055.34 132.028 1053 132.028H1030.77C1028.44 132.028 1026.54 130.132 1026.54 127.792V105.56Z" fill="black"/>
<path d="M688.889 139.335C688.889 136.996 690.785 135.099 693.124 135.099H715.349C717.688 135.099 719.584 136.996 719.584 139.335V161.567C719.584 163.906 717.688 165.803 715.349 165.803H693.124C690.785 165.803 688.889 163.906 688.889 161.567V139.335Z" fill="black"/>
<path d="M722.654 139.335C722.654 136.996 724.55 135.099 726.889 135.099H749.114C751.453 135.099 753.349 136.996 753.349 139.335V161.567C753.349 163.906 751.453 165.803 749.114 165.803H726.889C724.55 165.803 722.654 163.906 722.654 161.567V139.335Z" fill="black"/>
<path d="M992.775 139.335C992.775 136.996 994.671 135.099 997.01 135.099H1019.23C1021.57 135.099 1023.47 136.996 1023.47 139.335V161.567C1023.47 163.906 1021.57 165.803 1019.23 165.803H997.01C994.671 165.803 992.775 163.906 992.775 161.567V139.335Z" fill="black"/>
<path d="M1026.54 139.335C1026.54 136.996 1028.44 135.099 1030.77 135.099H1053C1055.34 135.099 1057.23 136.996 1057.23 139.335V161.567C1057.23 163.906 1055.34 165.803 1053 165.803H1030.77C1028.44 165.803 1026.54 163.906 1026.54 161.567V139.335Z" fill="black"/>
<path d="M688.889 173.11C688.889 170.77 690.785 168.873 693.124 168.873H715.349C717.688 168.873 719.584 170.77 719.584 173.11V195.341C719.584 197.681 717.688 199.577 715.349 199.577H693.124C690.785 199.577 688.889 197.681 688.889 195.341V173.11Z" fill="black"/>
<path d="M722.654 173.11C722.654 170.77 724.55 168.873 726.889 168.873H749.114C751.453 168.873 753.349 170.77 753.349 173.11V195.341C753.349 197.681 751.453 199.577 749.114 199.577H726.889C724.55 199.577 722.654 197.681 722.654 195.341V173.11Z" fill="black"/>
<path d="M992.775 173.11C992.775 170.77 994.671 168.873 997.01 168.873H1019.23C1021.57 168.873 1023.47 170.77 1023.47 173.11V195.341C1023.47 197.681 1021.57 199.577 1019.23 199.577H997.01C994.671 199.577 992.775 197.681 992.775 195.341V173.11Z" fill="black"/>
<path d="M1026.54 173.11C1026.54 170.77 1028.44 168.873 1030.77 168.873H1053C1055.34 168.873 1057.23 170.77 1057.23 173.11V195.341C1057.23 197.681 1055.34 199.577 1053 199.577H1030.77C1028.44 199.577 1026.54 197.681 1026.54 195.341V173.11Z" fill="black"/>
<path d="M688.889 206.884C688.889 204.545 690.785 202.648 693.124 202.648H715.349C717.688 202.648 719.584 204.545 719.584 206.884V229.116C719.584 231.455 717.688 233.352 715.349 233.352H693.124C690.785 233.352 688.889 231.455 688.889 229.116V206.884Z" fill="black"/>
<path d="M722.654 206.884C722.654 204.545 724.55 202.648 726.889 202.648H749.114C751.453 202.648 753.349 204.545 753.349 206.884V229.116C753.349 231.455 751.453 233.352 749.114 233.352H726.889C724.55 233.352 722.654 231.455 722.654 229.116V206.884Z" fill="black"/>
<path d="M992.775 206.884C992.775 204.545 994.671 202.648 997.01 202.648H1019.23C1021.57 202.648 1023.47 204.545 1023.47 206.884V229.116C1023.47 231.455 1021.57 233.352 1019.23 233.352H997.01C994.671 233.352 992.775 231.455 992.775 229.116V206.884Z" fill="black"/>
<path d="M1026.54 206.884C1026.54 204.545 1028.44 202.648 1030.77 202.648H1053C1055.34 202.648 1057.23 204.545 1057.23 206.884V229.116C1057.23 231.455 1055.34 233.352 1053 233.352H1030.77C1028.44 233.352 1026.54 231.455 1026.54 229.116V206.884Z" fill="black"/>
<path d="M688.889 240.659C688.889 238.319 690.785 236.423 693.124 236.423H715.349C717.688 236.423 719.584 238.319 719.584 240.659V262.89C719.584 265.23 717.688 267.127 715.349 267.127H693.124C690.785 267.127 688.889 265.23 688.889 262.89V240.659Z" fill="black"/>
<path d="M722.654 240.659C722.654 238.319 724.55 236.423 726.889 236.423H749.114C751.453 236.423 753.349 238.319 753.349 240.659V262.89C753.349 265.23 751.453 267.127 749.114 267.127H726.889C724.55 267.127 722.654 265.23 722.654 262.89V240.659Z" fill="black"/>
<path d="M857.714 240.659C857.714 238.319 859.61 236.423 861.949 236.423H884.175C886.513 236.423 888.41 238.319 888.41 240.659V262.89C888.41 265.23 886.513 267.127 884.175 267.127H861.949C859.61 267.127 857.714 265.23 857.714 262.89V240.659Z" fill="black"/>
<path d="M891.479 240.659C891.479 238.319 893.375 236.423 895.714 236.423H917.94C920.278 236.423 922.174 238.319 922.174 240.659V262.89C922.174 265.23 920.278 267.127 917.94 267.127H895.714C893.375 267.127 891.479 265.23 891.479 262.89V240.659Z" fill="black"/>
<path d="M992.775 240.659C992.775 238.319 994.671 236.423 997.01 236.423H1019.23C1021.57 236.423 1023.47 238.319 1023.47 240.659V262.89C1023.47 265.23 1021.57 267.127 1019.23 267.127H997.01C994.671 267.127 992.775 265.23 992.775 262.89V240.659Z" fill="black"/>
<path d="M1026.54 240.659C1026.54 238.319 1028.44 236.423 1030.77 236.423H1053C1055.34 236.423 1057.23 238.319 1057.23 240.659V262.89C1057.23 265.23 1055.34 267.127 1053 267.127H1030.77C1028.44 267.127 1026.54 265.23 1026.54 262.89V240.659Z" fill="black"/>
<path d="M688.889 274.434C688.889 272.094 690.785 270.198 693.124 270.198H715.349C717.688 270.198 719.584 272.094 719.584 274.434V296.665C719.584 299.005 717.688 300.901 715.349 300.901H693.124C690.785 300.901 688.889 299.005 688.889 296.665V274.434Z" fill="black"/>
<path d="M722.654 274.434C722.654 272.094 724.55 270.198 726.889 270.198H749.114C751.453 270.198 753.349 272.094 753.349 274.434V296.665C753.349 299.005 751.453 300.901 749.114 300.901H726.889C724.55 300.901 722.654 299.005 722.654 296.665V274.434Z" fill="black"/>
<path d="M857.714 274.434C857.714 272.094 859.61 270.198 861.949 270.198H884.175C886.513 270.198 888.41 272.094 888.41 274.434V296.665C888.41 299.005 886.513 300.901 884.175 300.901H861.949C859.61 300.901 857.714 299.005 857.714 296.665V274.434Z" fill="black"/>
<path d="M891.479 274.434C891.479 272.094 893.375 270.198 895.714 270.198H917.94C920.278 270.198 922.174 272.094 922.174 274.434V296.665C922.174 299.005 920.278 300.901 917.94 300.901H895.714C893.375 300.901 891.479 299.005 891.479 296.665V274.434Z" fill="black"/>
<path d="M925.244 274.434C925.244 272.094 927.14 270.198 929.479 270.198H951.705C954.044 270.198 955.94 272.094 955.94 274.434V296.665C955.94 299.005 954.044 300.901 951.705 300.901H929.479C927.14 300.901 925.244 299.005 925.244 296.665V274.434Z" fill="black"/>
<path d="M992.775 274.434C992.775 272.094 994.671 270.198 997.01 270.198H1019.23C1021.57 270.198 1023.47 272.094 1023.47 274.434V296.665C1023.47 299.005 1021.57 300.901 1019.23 300.901H997.01C994.671 300.901 992.775 299.005 992.775 296.665V274.434Z" fill="black"/>
<path d="M1026.54 274.434C1026.54 272.094 1028.44 270.198 1030.77 270.198H1053C1055.34 270.198 1057.23 272.094 1057.23 274.434V296.665C1057.23 299.005 1055.34 300.901 1053 300.901H1030.77C1028.44 300.901 1026.54 299.005 1026.54 296.665V274.434Z" fill="black"/>
<path d="M688.889 308.208C688.889 305.869 690.785 303.972 693.124 303.972H715.349C717.688 303.972 719.584 305.869 719.584 308.208V330.44C719.584 332.779 717.688 334.676 715.349 334.676H693.124C690.785 334.676 688.889 332.779 688.889 330.44V308.208Z" fill="black"/>
<path d="M722.654 308.208C722.654 305.869 724.55 303.972 726.889 303.972H749.114C751.453 303.972 753.349 305.869 753.349 308.208V330.44C753.349 332.779 751.453 334.676 749.114 334.676H726.889C724.55 334.676 722.654 332.779 722.654 330.44V308.208Z" fill="black"/>
<path d="M756.419 308.208C756.419 305.869 758.315 303.972 760.654 303.972H782.88C785.218 303.972 787.115 305.869 787.115 308.208V330.44C787.115 332.779 785.218 334.676 782.88 334.676H760.654C758.315 334.676 756.419 332.779 756.419 330.44V308.208Z" fill="black"/>
<path d="M891.479 308.208C891.479 305.869 893.375 303.972 895.714 303.972H917.94C920.278 303.972 922.174 305.869 922.174 308.208V330.44C922.174 332.779 920.278 334.676 917.94 334.676H895.714C893.375 334.676 891.479 332.779 891.479 330.44V308.208Z" fill="black"/>
<path d="M925.244 308.208C925.244 305.869 927.14 303.972 929.479 303.972H951.705C954.044 303.972 955.94 305.869 955.94 308.208V330.44C955.94 332.779 954.044 334.676 951.705 334.676H929.479C927.14 334.676 925.244 332.779 925.244 330.44V308.208Z" fill="black"/>
<path d="M959.009 308.208C959.009 305.869 960.905 303.972 963.244 303.972H985.47C987.808 303.972 989.705 305.869 989.705 308.208V330.44C989.705 332.779 987.808 334.676 985.47 334.676H963.244C960.905 334.676 959.009 332.779 959.009 330.44V308.208Z" fill="black"/>
<path d="M992.775 308.208C992.775 305.869 994.671 303.972 997.01 303.972H1019.23C1021.57 303.972 1023.47 305.869 1023.47 308.208V330.44C1023.47 332.779 1021.57 334.676 1019.23 334.676H997.01C994.671 334.676 992.775 332.779 992.775 330.44V308.208Z" fill="black"/>
<path d="M1026.54 308.208C1026.54 305.869 1028.44 303.972 1030.77 303.972H1053C1055.34 303.972 1057.23 305.869 1057.23 308.208V330.44C1057.23 332.779 1055.34 334.676 1053 334.676H1030.77C1028.44 334.676 1026.54 332.779 1026.54 330.44V308.208Z" fill="black"/>
<path d="M722.654 341.983C722.654 339.643 724.55 337.747 726.889 337.747H749.114C751.453 337.747 753.349 339.643 753.349 341.983V364.214C753.349 366.554 751.453 368.451 749.114 368.451H726.889C724.55 368.451 722.654 366.554 722.654 364.214V341.983Z" fill="black"/>
<path d="M756.419 341.983C756.419 339.643 758.315 337.747 760.654 337.747H782.88C785.218 337.747 787.115 339.643 787.115 341.983V364.214C787.115 366.554 785.218 368.451 782.88 368.451H760.654C758.315 368.451 756.419 366.554 756.419 364.214V341.983Z" fill="black"/>
<path d="M790.185 341.983C790.185 339.643 792.081 337.747 794.42 337.747H816.645C818.984 337.747 820.88 339.643 820.88 341.983V364.214C820.88 366.554 818.984 368.451 816.645 368.451H794.42C792.081 368.451 790.185 366.554 790.185 364.214V341.983Z" fill="black"/>
<path d="M925.244 341.983C925.244 339.643 927.14 337.747 929.479 337.747H951.705C954.044 337.747 955.94 339.643 955.94 341.983V364.214C955.94 366.554 954.044 368.451 951.705 368.451H929.479C927.14 368.451 925.244 366.554 925.244 364.214V341.983Z" fill="black"/>
<path d="M959.009 341.983C959.009 339.643 960.905 337.747 963.244 337.747H985.47C987.808 337.747 989.705 339.643 989.705 341.983V364.214C989.705 366.554 987.808 368.451 985.47 368.451H963.244C960.905 368.451 959.009 366.554 959.009 364.214V341.983Z" fill="black"/>
<path d="M992.775 341.983C992.775 339.643 994.671 337.747 997.01 337.747H1019.23C1021.57 337.747 1023.47 339.643 1023.47 341.983V364.214C1023.47 366.554 1021.57 368.451 1019.23 368.451H997.01C994.671 368.451 992.775 366.554 992.775 364.214V341.983Z" fill="black"/>
<path d="M756.419 375.758C756.419 373.418 758.315 371.522 760.654 371.522H782.88C785.218 371.522 787.115 373.418 787.115 375.758V397.989C787.115 400.329 785.218 402.226 782.88 402.226H760.654C758.315 402.226 756.419 400.329 756.419 397.989V375.758Z" fill="black"/>
<path d="M790.185 375.758C790.185 373.418 792.081 371.522 794.42 371.522H816.645C818.984 371.522 820.88 373.418 820.88 375.758V397.989C820.88 400.329 818.984 402.226 816.645 402.226H794.42C792.081 402.226 790.185 400.329 790.185 397.989V375.758Z" fill="black"/>
<path d="M823.949 375.758C823.949 373.418 825.845 371.522 828.184 371.522H850.41C852.749 371.522 854.645 373.418 854.645 375.758V397.989C854.645 400.329 852.749 402.226 850.41 402.226H828.184C825.845 402.226 823.949 400.329 823.949 397.989V375.758Z" fill="black"/>
<path d="M857.714 375.758C857.714 373.418 859.61 371.522 861.949 371.522H884.175C886.513 371.522 888.41 373.418 888.41 375.758V397.989C888.41 400.329 886.513 402.226 884.175 402.226H861.949C859.61 402.226 857.714 400.329 857.714 397.989V375.758Z" fill="black"/>
<path d="M891.479 375.758C891.479 373.418 893.375 371.522 895.714 371.522H917.94C920.278 371.522 922.174 373.418 922.174 375.758V397.989C922.174 400.329 920.278 402.226 917.94 402.226H895.714C893.375 402.226 891.479 400.329 891.479 397.989V375.758Z" fill="black"/>
<path d="M925.244 375.758C925.244 373.418 927.14 371.522 929.479 371.522H951.705C954.044 371.522 955.94 373.418 955.94 375.758V397.989C955.94 400.329 954.044 402.226 951.705 402.226H929.479C927.14 402.226 925.244 400.329 925.244 397.989V375.758Z" fill="black"/>
<path d="M959.009 375.758C959.009 373.418 960.905 371.522 963.244 371.522H985.47C987.808 371.522 989.705 373.418 989.705 375.758V397.989C989.705 400.329 987.808 402.226 985.47 402.226H963.244C960.905 402.226 959.009 400.329 959.009 397.989V375.758Z" fill="black"/>
<path d="M992.775 375.758C992.775 373.418 994.671 371.522 997.01 371.522H1019.23C1021.57 371.522 1023.47 373.418 1023.47 375.758V397.989C1023.47 400.329 1021.57 402.226 1019.23 402.226H997.01C994.671 402.226 992.775 400.329 992.775 397.989V375.758Z" fill="black"/>
<path d="M1026.54 375.758C1026.54 373.418 1028.44 371.522 1030.77 371.522H1053C1055.34 371.522 1057.23 373.418 1057.23 375.758V397.989C1057.23 400.329 1055.34 402.226 1053 402.226H1030.77C1028.44 402.226 1026.54 400.329 1026.54 397.989V375.758Z" fill="black"/>
<path d="M1060.3 375.758C1060.3 373.418 1062.2 371.522 1064.54 371.522H1086.77C1089.1 371.522 1091 373.418 1091 375.758V397.989C1091 400.329 1089.1 402.226 1086.77 402.226H1064.54C1062.2 402.226 1060.3 400.329 1060.3 397.989V375.758Z" fill="black"/>
<path d="M790.185 409.532C790.185 407.193 792.081 405.296 794.42 405.296H816.645C818.984 405.296 820.88 407.193 820.88 409.532V431.764C820.88 434.103 818.984 436 816.645 436H794.42C792.081 436 790.185 434.103 790.185 431.764V409.532Z" fill="black"/>
<path d="M823.949 409.532C823.949 407.193 825.845 405.296 828.184 405.296H850.41C852.749 405.296 854.645 407.193 854.645 409.532V431.764C854.645 434.103 852.749 436 850.41 436H828.184C825.845 436 823.949 434.103 823.949 431.764V409.532Z" fill="black"/>
<path d="M857.714 409.532C857.714 407.193 859.61 405.296 861.949 405.296H884.175C886.513 405.296 888.41 407.193 888.41 409.532V431.764C888.41 434.103 886.513 436 884.175 436H861.949C859.61 436 857.714 434.103 857.714 431.764V409.532Z" fill="black"/>
<path d="M891.479 409.532C891.479 407.193 893.375 405.296 895.714 405.296H917.94C920.278 405.296 922.174 407.193 922.174 409.532V431.764C922.174 434.103 920.278 436 917.94 436H895.714C893.375 436 891.479 434.103 891.479 431.764V409.532Z" fill="black"/>
<path d="M925.244 409.532C925.244 407.193 927.14 405.296 929.479 405.296H951.705C954.044 405.296 955.94 407.193 955.94 409.532V431.764C955.94 434.103 954.044 436 951.705 436H929.479C927.14 436 925.244 434.103 925.244 431.764V409.532Z" fill="black"/>
<path d="M992.775 409.532C992.775 407.193 994.671 405.296 997.01 405.296H1019.23C1021.57 405.296 1023.47 407.193 1023.47 409.532V431.764C1023.47 434.103 1021.57 436 1019.23 436H997.01C994.671 436 992.775 434.103 992.775 431.764V409.532Z" fill="black"/>
<path d="M1026.54 409.532C1026.54 407.193 1028.44 405.296 1030.77 405.296H1053C1055.34 405.296 1057.23 407.193 1057.23 409.532V431.764C1057.23 434.103 1055.34 436 1053 436H1030.77C1028.44 436 1026.54 434.103 1026.54 431.764V409.532Z" fill="black"/>
<path d="M1060.3 409.532C1060.3 407.193 1062.2 405.296 1064.54 405.296H1086.77C1089.1 405.296 1091 407.193 1091 409.532V431.764C1091 434.103 1089.1 436 1086.77 436H1064.54C1062.2 436 1060.3 434.103 1060.3 431.764V409.532Z" fill="black"/>
</svg>
