<svg width="2610" height="223" viewBox="0 0 2610 223" fill="none" xmlns="http://www.w3.org/2000/svg">
<path d="M3.57628e-07 146.4H76.2V147.6C76.2 153.6 77.4 161.1 84.6 166.5C92.1 172.2 105 173.1 109.8 173.1C117 173.1 126 172.8 132.9 169.5C140.4 165.9 143.1 160.5 143.1 154.5C143.1 144.9 136.2 141.6 130.5 139.8C127.8 138.9 121.8 137.1 105.6 134.4L83.1 130.5C45.3 123.9 30.6 117.9 21.6 111.6C5.4 99.8999 2.1 83.9999 2.1 71.3999C2.1 46.2 13.8 29.6999 32.1 17.9999C55.5 2.99994 84 0.299935 107.7 0.299935C153.9 0.299935 175.2 10.7999 183.9 16.1999C209.4 31.7999 212.7 52.7999 212.1 68.3999H138V67.4999C138 62.6999 136.8 56.6999 129.6 52.4999C126.9 50.9999 120.6 48.2999 106.8 48.2999C96.9 48.2999 90.9 49.7999 87 51.9C81.3 54.8999 78 59.9999 78 64.4999C78 72.2999 84.6 75.2999 88.5 76.4999C91.2 77.3999 96.9 78.8999 119.1 82.4999L143.4 86.3999C169.2 90.5999 187.5 96.2999 200.1 105.9C215.7 117.9 220.8 133.2 220.8 151.2C220.8 169.8 215.7 185.1 202.8 197.7C180.3 219.9 144 222.3 110.4 222.3C60.9 222.3 39 212.1 28.2 204.6C15.6 195.6 3.57628e-07 177.9 3.57628e-07 147.9V146.4ZM333.27 62.0999V104.7H367.77C375.27 104.7 385.17 103.5 390.87 98.6999C395.37 95.0999 398.07 88.7999 398.07 81.5999C398.07 72.5999 392.97 68.3999 391.77 67.4999C386.97 63.5999 377.37 62.0999 368.97 62.0999H333.27ZM255.27 5.69994H381.57C405.27 5.69994 436.17 8.39994 456.57 28.7999C466.17 38.3999 476.07 54.8999 476.07 81.5999C476.07 105.9 467.97 123.3 458.07 134.4C436.77 158.1 403.77 158.1 378.27 158.1H333.27V215.7H255.27V5.69994ZM626.58 55.7999C613.08 55.7999 601.08 61.1999 593.88 68.0999C584.58 77.3999 579.48 92.9999 579.48 110.7C579.48 128.4 584.58 144 593.88 153.3C601.08 160.2 613.08 165.6 626.58 165.6C640.08 165.6 652.08 160.2 659.28 153.3C668.58 144 673.68 128.4 673.68 110.7C673.68 92.9999 668.58 77.3999 659.28 68.0999C652.08 61.1999 640.08 55.7999 626.58 55.7999ZM757.68 110.7C757.68 154.5 737.28 179.4 723.18 191.4C701.88 209.7 668.28 221.4 626.58 221.4C584.88 221.4 551.28 209.7 529.98 191.4C515.88 179.4 495.48 154.5 495.48 110.7C495.48 66.8999 515.88 41.9999 529.98 29.9999C551.28 11.6999 584.88 -6.12736e-05 626.58 -6.12736e-05C668.28 -6.12736e-05 701.88 11.6999 723.18 29.9999C737.28 41.9999 757.68 66.8999 757.68 110.7ZM871.411 101.1H868.411L871.411 125.4V215.7H795.211V5.69994H866.911L947.611 120.6H950.611L947.611 96.2999V5.69994H1023.81V215.7H952.111L871.411 101.1ZM1058.2 146.4H1134.4V147.6C1134.4 153.6 1135.6 161.1 1142.8 166.5C1150.3 172.2 1163.2 173.1 1168 173.1C1175.2 173.1 1184.2 172.8 1191.1 169.5C1198.6 165.9 1201.3 160.5 1201.3 154.5C1201.3 144.9 1194.4 141.6 1188.7 139.8C1186 138.9 1180 137.1 1163.8 134.4L1141.3 130.5C1103.5 123.9 1088.8 117.9 1079.8 111.6C1063.6 99.8999 1060.3 83.9999 1060.3 71.3999C1060.3 46.2 1072 29.6999 1090.3 17.9999C1113.7 2.99994 1142.2 0.299935 1165.9 0.299935C1212.1 0.299935 1233.4 10.7999 1242.1 16.1999C1267.6 31.7999 1270.9 52.7999 1270.3 68.3999H1196.2V67.4999C1196.2 62.6999 1195 56.6999 1187.8 52.4999C1185.1 50.9999 1178.8 48.2999 1165 48.2999C1155.1 48.2999 1149.1 49.7999 1145.2 51.9C1139.5 54.8999 1136.2 59.9999 1136.2 64.4999C1136.2 72.2999 1142.8 75.2999 1146.7 76.4999C1149.4 77.3999 1155.1 78.8999 1177.3 82.4999L1201.6 86.3999C1227.4 90.5999 1245.7 96.2999 1258.3 105.9C1273.9 117.9 1279 133.2 1279 151.2C1279 169.8 1273.9 185.1 1261 197.7C1238.5 219.9 1202.2 222.3 1168.6 222.3C1119.1 222.3 1097.2 212.1 1086.4 204.6C1073.8 195.6 1058.2 177.9 1058.2 147.9V146.4ZM1431.07 55.7999C1417.57 55.7999 1405.57 61.1999 1398.37 68.0999C1389.07 77.3999 1383.97 92.9999 1383.97 110.7C1383.97 128.4 1389.07 144 1398.37 153.3C1405.57 160.2 1417.57 165.6 1431.07 165.6C1444.57 165.6 1456.57 160.2 1463.77 153.3C1473.07 144 1478.17 128.4 1478.17 110.7C1478.17 92.9999 1473.07 77.3999 1463.77 68.0999C1456.57 61.1999 1444.57 55.7999 1431.07 55.7999ZM1562.17 110.7C1562.17 154.5 1541.77 179.4 1527.67 191.4C1506.37 209.7 1472.77 221.4 1431.07 221.4C1389.37 221.4 1355.77 209.7 1334.47 191.4C1320.37 179.4 1299.97 154.5 1299.97 110.7C1299.97 66.8999 1320.37 41.9999 1334.47 29.9999C1355.77 11.6999 1389.37 -6.12736e-05 1431.07 -6.12736e-05C1472.77 -6.12736e-05 1506.37 11.6999 1527.67 29.9999C1541.77 41.9999 1562.17 66.8999 1562.17 110.7ZM1824.19 5.69994V132.9C1824.19 151.8 1821.49 180.3 1795.09 200.7C1773.49 217.5 1741.09 221.4 1710.19 221.4C1679.29 221.4 1646.89 217.5 1625.29 200.7C1598.89 180.3 1596.19 151.8 1596.19 132.9V5.69994H1674.19V125.4C1674.19 133.5 1675.39 146.1 1683.79 154.5C1691.29 162 1702.09 163.2 1710.19 163.2C1718.29 163.2 1729.09 162 1736.59 154.5C1745.59 145.5 1746.19 131.7 1746.19 125.4V5.69994H1824.19ZM1953.09 56.6999V98.0999H1991.79C1999.29 98.0999 2007.99 96.5999 2012.79 92.9999C2016.99 89.6999 2020.29 83.6999 2020.29 76.1999C2020.29 67.7999 2015.79 63 2012.49 60.8999C2007.69 57.5999 1998.69 56.6999 1991.19 56.6999H1953.09ZM1875.09 215.7V5.69994H2013.39C2030.49 5.69994 2057.19 7.49995 2074.59 20.3999C2085.09 28.2 2096.49 42.5999 2096.49 67.4999C2096.49 80.0999 2093.79 92.6999 2082.99 103.5C2073.09 113.7 2059.89 117.9 2057.49 118.8V120.3C2065.89 122.1 2076.39 127.2 2082.39 133.5C2091.99 143.7 2092.29 155.7 2092.89 167.7L2093.79 184.8C2094.39 197.1 2094.99 204.6 2102.49 215.7H2022.99C2014.89 206.1 2014.59 198.6 2014.29 189.9L2013.69 177.3C2013.39 168.6 2012.19 157.5 2004.69 151.2C2002.29 149.1 1995.99 144.9 1977.39 144.9H1953.09V215.7H1875.09ZM2289.42 138.3H2367.12C2365.62 172.2 2348.22 192.9 2329.02 204.9C2303.82 220.8 2270.82 221.7 2249.52 221.7C2216.22 221.7 2180.52 218.1 2152.62 190.8C2128.02 166.5 2122.92 135.3 2122.92 112.8C2122.92 85.7999 2128.32 56.0999 2152.92 31.7999C2182.32 2.69994 2219.22 0.299935 2247.72 0.299935C2273.52 0.299935 2309.52 2.99994 2333.82 20.3999C2345.82 29.0999 2364.42 47.7 2366.22 81.5999H2287.92C2287.32 72.2999 2282.82 66.2999 2277.72 62.6999C2272.32 58.8 2264.22 56.0999 2253.12 56.0999C2241.12 56.0999 2229.42 58.4999 2220.12 68.6999C2211.72 77.9999 2206.92 92.9999 2206.92 112.8C2206.92 123.3 2208.42 141.9 2220.42 154.2C2230.62 164.4 2243.22 165.9 2253.42 165.9C2261.52 165.9 2272.32 164.7 2280.12 157.5C2282.52 155.1 2288.52 149.1 2289.42 138.3ZM2476.63 84.8999H2580.43V134.4H2476.63V160.2H2609.23V215.7H2398.63V5.69994H2606.23V61.1999H2476.63V84.8999Z" fill="white"/>
</svg>
