<svg xmlns="http://www.w3.org/2000/svg" style="display:none">
  <symbol id="ico-brand-safety" viewBox="0 0 24 24" fill="none">
    <g id="SVGRepo_bgCarrier" stroke-width="0"></g>
    <g id="SVGRepo_tracerCarrier" stroke-linecap="round" stroke-linejoin="round"></g>
    <g id="SVGRepo_iconCarrier">
      <path d="M2.50047 13H8.50047M15.5005 13H21.5005M12.0005 7V21M12.0005 7C13.3812 7 14.5005 5.88071 14.5005 4.5M12.0005 7C10.6198 7 9.50047 5.88071 9.50047 4.5M4.00047 21L20.0005 21M4.00047 4.50001L9.50047 4.5M9.50047 4.5C9.50047 3.11929 10.6198 2 12.0005 2C13.3812 2 14.5005 3.11929 14.5005 4.5M14.5005 4.5L20.0005 4.5M8.88091 14.3364C8.48022 15.8706 7.11858 17 5.50047 17C3.88237 17 2.52073 15.8706 2.12004 14.3364C2.0873 14.211 2.07093 14.1483 2.06935 13.8979C2.06838 13.7443 2.12544 13.3904 2.17459 13.2449C2.25478 13.0076 2.34158 12.8737 2.51519 12.6059L5.50047 8L8.48576 12.6059C8.65937 12.8737 8.74617 13.0076 8.82636 13.2449C8.87551 13.3904 8.93257 13.7443 8.9316 13.8979C8.93002 14.1483 8.91365 14.211 8.88091 14.3364ZM21.8809 14.3364C21.4802 15.8706 20.1186 17 18.5005 17C16.8824 17 15.5207 15.8706 15.12 14.3364C15.0873 14.211 15.0709 14.1483 15.0693 13.8979C15.0684 13.7443 15.1254 13.3904 15.1746 13.2449C15.2548 13.0076 15.3416 12.8737 15.5152 12.6059L18.5005 8L21.4858 12.6059C21.6594 12.8737 21.7462 13.0076 21.8264 13.2449C21.8755 13.3904 21.9326 13.7443 21.9316 13.8979C21.93 14.1483 21.9137 14.211 21.8809 14.3364Z" stroke="#000000" stroke-width="2" stroke-linecap="round" stroke-linejoin="round"></path>
    </g>
  </symbol>

  <symbol id="ico-product-seeding" viewBox="0 0 24 24" fill="none">
    <g id="SVGRepo_bgCarrier" stroke-width="0"></g>
    <g id="SVGRepo_tracerCarrier" stroke-linecap="round" stroke-linejoin="round"></g>
    <g id="SVGRepo_iconCarrier">
      <path d="M15.9996 8C15.9996 9.06087 15.5782 10.0783 14.828 10.8284C14.0779 11.5786 13.0605 12 11.9996 12C10.9387 12 9.92131 11.5786 9.17116 10.8284C8.42102 10.0783 7.99959 9.06087 7.99959 8M3.63281 7.40138L2.93281 15.8014C2.78243 17.6059 2.70724 18.5082 3.01227 19.2042C3.28027 19.8157 3.74462 20.3204 4.33177 20.6382C5.00006 21 5.90545 21 7.71623 21H16.283C18.0937 21 18.9991 21 19.6674 20.6382C20.2546 20.3204 20.7189 19.8157 20.9869 19.2042C21.2919 18.5082 21.2167 17.6059 21.0664 15.8014L20.3664 7.40138C20.237 5.84875 20.1723 5.07243 19.8285 4.48486C19.5257 3.96744 19.0748 3.5526 18.5341 3.29385C17.92 3 17.141 3 15.583 3L8.41623 3C6.85821 3 6.07921 3 5.4651 3.29384C4.92433 3.5526 4.47349 3.96744 4.17071 4.48486C3.82689 5.07243 3.76219 5.84875 3.63281 7.40138Z" stroke="#000000" stroke-width="2" stroke-linecap="round" stroke-linejoin="round"></path>
    </g>
  </symbol>

  <symbol id="ico-go-live" viewBox="0 0 24 24" fill="none">
    <g id="SVGRepo_bgCarrier" stroke-width="0"></g>
    <g id="SVGRepo_tracerCarrier" stroke-linecap="round" stroke-linejoin="round"></g>
    <g id="SVGRepo_iconCarrier">
      <path d="M12 22C17.5228 22 22 17.5228 22 12C22 6.47715 17.5228 2 12 2C6.47715 2 2 6.47715 2 12C2 17.5228 6.47715 22 12 22Z" stroke="#000000" stroke-width="2" stroke-linecap="round" stroke-linejoin="round"></path>
      <path d="M12 18C15.3137 18 18 15.3137 18 12C18 8.68629 15.3137 6 12 6C8.68629 6 6 8.68629 6 12C6 15.3137 8.68629 18 12 18Z" stroke="#000000" stroke-width="2" stroke-linecap="round" stroke-linejoin="round"></path>
      <path d="M12 14C13.1046 14 14 13.1046 14 12C14 10.8954 13.1046 10 12 10C10.8954 10 10 10.8954 10 12C10 13.1046 10.8954 14 12 14Z" stroke="#000000" stroke-width="2" stroke-linecap="round" stroke-linejoin="round"></path>
    </g>
  </symbol>

  <symbol id="ico-creator-outreach" viewBox="0 0 24 24" fill="none">
    <g id="SVGRepo_bgCarrier" stroke-width="0"></g>
    <g id="SVGRepo_tracerCarrier" stroke-linecap="round" stroke-linejoin="round"></g>
    <g id="SVGRepo_iconCarrier">
      <path d="M16.2426 7.75714C18.5858 10.1003 18.5858 13.8993 16.2426 16.2424M7.75736 16.2424C5.41421 13.8992 5.41421 10.1002 7.75736 7.7571M4.92893 19.0708C1.02369 15.1656 1.02369 8.83395 4.92893 4.92871M19.0711 4.92876C22.9763 8.834 22.9763 15.1656 19.0711 19.0709M14 11.9998C14 13.1043 13.1046 13.9998 12 13.9998C10.8954 13.9998 10 13.1043 10 11.9998C10 10.8952 10.8954 9.99978 12 9.99978C13.1046 9.99978 14 10.8952 14 11.9998Z" stroke="#000000" stroke-width="2" stroke-linecap="round" stroke-linejoin="round"></path>
    </g>
  </symbol>

  <symbol id="ico-match-engine" viewBox="0 0 24 24" fill="none">
    <g id="SVGRepo_bgCarrier" stroke-width="0"></g>
    <g id="SVGRepo_tracerCarrier" stroke-linecap="round" stroke-linejoin="round"></g>
    <g id="SVGRepo_iconCarrier">
      <path d="M17.1153 15.3582C16.8446 15.6642 16.5606 15.9665 16.2635 16.2635C11.9678 20.5593 6.58585 22.1422 4.2427 19.7991C2.6363 18.1926 2.8752 15.158 4.56847 12.0242M6.88967 8.72526C7.17138 8.40495 7.46772 8.08875 7.77824 7.77824C12.074 3.48247 17.4559 1.89956 19.7991 4.2427C21.4066 5.85021 21.1662 8.88795 19.4698 12.024M16.2635 7.77824C20.5593 12.074 22.1422 17.4559 19.7991 19.7991C17.4559 22.1422 12.074 20.5593 7.77824 16.2635C3.48247 11.9678 1.89956 6.58585 4.2427 4.2427C6.58585 1.89956 11.9678 3.48247 16.2635 7.77824ZM13.0001 12C13.0001 12.5523 12.5523 13 12.0001 13C11.4478 13 11.0001 12.5523 11.0001 12C11.0001 11.4477 11.4478 11 12.0001 11C12.5523 11 13.0001 11.4477 13.0001 12Z" stroke="#000000" stroke-width="2" stroke-linecap="round" stroke-linejoin="round"></path>
    </g>
  </symbol>

  <symbol id="ico-fraud-check" viewBox="0 0 24 24" fill="none">
    <g id="SVGRepo_bgCarrier" stroke-width="0"></g>
    <g id="SVGRepo_tracerCarrier" stroke-linecap="round" stroke-linejoin="round"></g>
    <g id="SVGRepo_iconCarrier">
      <path d="M5.80688 18.5304C5.82459 18.5005 5.84273 18.4709 5.8613 18.4413C7.2158 16.2881 7.99991 13.7418 7.99991 11C7.99991 8.79086 9.79077 7 11.9999 7C14.209 7 15.9999 8.79086 15.9999 11C15.9999 12.017 15.9307 13.0186 15.7966 14M13.6792 20.8436C14.2909 19.6226 14.7924 18.3369 15.1707 17M19.0097 18.132C19.6547 15.8657 20 13.4732 20 11C20 6.58172 16.4183 3 12 3C10.5429 3 9.17669 3.38958 8 4.07026M3 15.3641C3.64066 14.0454 4 12.5646 4 11C4 9.54285 4.38958 8.17669 5.07026 7M11.9999 11C11.9999 14.5172 10.9911 17.7988 9.24707 20.5712" stroke="#000000" stroke-width="2" stroke-linecap="round" stroke-linejoin="round"></path>
    </g>
  </symbol>

  <symbol id="ico-timing-fit" viewBox="0 0 24 24" fill="none">
    <g id="SVGRepo_bgCarrier" stroke-width="0"></g>
    <g id="SVGRepo_tracerCarrier" stroke-linecap="round" stroke-linejoin="round"></g>
    <g id="SVGRepo_iconCarrier">
      <path d="M17.7453 16C18.5362 14.8661 19 13.4872 19 12C19 11.4851 18.9444 10.9832 18.8389 10.5M6.25469 16C5.46381 14.8662 5 13.4872 5 12C5 8.13401 8.13401 5 12 5C12.4221 5 12.8355 5.03737 13.2371 5.10897M16.4999 7.5L11.9999 12M22 12C22 17.5228 17.5228 22 12 22C6.47715 22 2 17.5228 2 12C2 6.47715 6.47715 2 12 2C17.5228 2 22 6.47715 22 12ZM13 12C13 12.5523 12.5523 13 12 13C11.4477 13 11 12.5523 11 12C11 11.4477 11.4477 11 12 11C12.5523 11 13 11.4477 13 12Z" stroke="#000000" stroke-width="2" stroke-linecap="round" stroke-linejoin="round"></path>
    </g>
  </symbol>

  <symbol id="ico-live-analytics" viewBox="0 0 24 24" fill="none">
    <g id="SVGRepo_bgCarrier" stroke-width="0"></g>
    <g id="SVGRepo_tracerCarrier" stroke-linecap="round" stroke-linejoin="round"></g>
    <g id="SVGRepo_iconCarrier">
      <path d="M18.5 8V3M5.5 21V16M16 5.5H21M3 18.5H8M6.5 2L5.71554 3.56892C5.45005 4.09989 5.31731 4.36538 5.13997 4.59545C4.98261 4.79959 4.79959 4.98261 4.59545 5.13997C4.36538 5.31731 4.0999 5.45005 3.56892 5.71554L2 6.5L3.56892 7.28446C4.0999 7.54995 4.36538 7.68269 4.59545 7.86003C4.79959 8.01739 4.98261 8.20041 5.13997 8.40455C5.31731 8.63462 5.45005 8.9001 5.71554 9.43108L6.5 11L7.28446 9.43108C7.54995 8.9001 7.68269 8.63462 7.86003 8.40455C8.01739 8.20041 8.20041 8.01739 8.40455 7.86003C8.63462 7.68269 8.9001 7.54995 9.43108 7.28446L11 6.5L9.43108 5.71554C8.9001 5.45005 8.63462 5.31731 8.40455 5.13997C8.20041 4.98261 8.01739 4.79959 7.86003 4.59545C7.68269 4.36538 7.54995 4.0999 7.28446 3.56892L6.5 2ZM17 12L16.0489 13.9022C15.7834 14.4332 15.6506 14.6987 15.4733 14.9288C15.3159 15.1329 15.1329 15.3159 14.9288 15.4733C14.6987 15.6506 14.4332 15.7834 13.9023 16.0489L12 17L13.9023 17.9511C14.4332 18.2166 14.6987 18.3494 14.9288 18.5267C15.1329 18.6841 15.3159 18.8671 15.4733 19.0712C15.6506 19.3013 15.7834 19.5668 16.0489 20.0977L17 22L17.9511 20.0978C18.2166 19.5668 18.3494 19.3013 18.5267 19.0712C18.6841 18.8671 18.8671 18.6841 19.0712 18.5267C19.3013 18.3494 19.5668 18.2166 20.0977 17.9511L22 17L20.0977 16.0489C19.5668 15.7834 19.3013 15.6506 19.0712 15.4733C18.8671 15.3159 18.6841 15.1329 18.5267 14.9288C18.3494 14.6987 18.2166 14.4332 17.9511 13.9023L17 12Z" stroke="#000000" stroke-width="2" stroke-linecap="round" stroke-linejoin="round"></path>
    </g>
  </symbol>

  <symbol id="ico-attribution-hub" viewBox="0 0 24 24" fill="none">
    <g id="SVGRepo_bgCarrier" stroke-width="0"></g>
    <g id="SVGRepo_tracerCarrier" stroke-linecap="round" stroke-linejoin="round"></g>
    <g id="SVGRepo_iconCarrier">
      <path d="M11 4.5H18.3C19.4201 4.5 19.9802 4.5 20.408 4.71799C20.7843 4.90973 21.0903 5.21569 21.282 5.59202C21.5 6.01984 21.5 6.57989 21.5 7.7V9C21.5 9.93188 21.5 10.3978 21.3478 10.7654C21.1448 11.2554 20.7554 11.6448 20.2654 11.8478C19.8978 12 19.4319 12 18.5 12M13 19.5H5.7C4.5799 19.5 4.01984 19.5 3.59202 19.282C3.21569 19.0903 2.90973 18.7843 2.71799 18.408C2.5 17.9802 2.5 17.4201 2.5 16.3V15C2.5 14.0681 2.5 13.6022 2.65224 13.2346C2.85523 12.7446 3.24458 12.3552 3.73463 12.1522C4.10218 12 4.56812 12 5.5 12M10.3 14.5H13.7C13.98 14.5 14.12 14.5 14.227 14.4455C14.3211 14.3976 14.3976 14.3211 14.4455 14.227C14.5 14.12 14.5 13.98 14.5 13.7V10.3C14.5 10.02 14.5 9.87996 14.4455 9.773C14.3976 9.67892 14.3211 9.60243 14.227 9.5545C14.12 9.5 13.98 9.5 13.7 9.5H10.3C10.02 9.5 9.87996 9.5 9.773 9.5545C9.67892 9.60243 9.60243 9.67892 9.5545 9.773C9.5 9.87996 9.5 10.02 9.5 10.3V13.7C9.5 13.98 9.5 14.12 9.5545 14.227C9.60243 14.3211 9.67892 14.3976 9.773 14.4455C9.87996 14.5 10.02 14.5 10.3 14.5ZM17.8 22H21.2C21.48 22 21.62 22 21.727 21.9455C21.8211 21.8976 21.8976 21.8211 21.9455 21.727C22 21.62 22 21.48 22 21.2V17.8C22 17.52 22 17.38 21.9455 17.273C21.8976 17.1789 21.8211 17.1024 21.727 17.0545C21.62 17 21.48 17 21.2 17H17.8C17.52 17 17.38 17 17.273 17.0545C17.1789 17.1024 17.1024 17.1789 17.0545 17.273C17 17.38 17 17.52 17 17.8V21.2C17 21.48 17 21.62 17.0545 21.727C17.1024 21.8211 17.1789 21.8976 17.273 21.9455C17.38 22 17.52 22 17.8 22ZM2.8 7H6.2C6.48003 7 6.62004 7 6.727 6.9455C6.82108 6.89757 6.89757 6.82108 6.9455 6.727C7 6.62004 7 6.48003 7 6.2V2.8C7 2.51997 7 2.37996 6.9455 2.273C6.89757 2.17892 6.82108 2.10243 6.727 2.0545C6.62004 2 6.48003 2 6.2 2H2.8C2.51997 2 2.37996 2 2.273 2.0545C2.17892 2.10243 2.10243 2.17892 2.0545 2.273C2 2.37996 2 2.51997 2 2.8V6.2C2 6.48003 2 6.62004 2.0545 6.727C2.10243 6.82108 2.17892 6.89757 2.273 6.9455C2.37996 7 2.51997 7 2.8 7Z" stroke="#000000" stroke-width="2" stroke-linecap="round" stroke-linejoin="round"></path>
    </g>
  </symbol>

  <symbol id="ico-guaranteed-impressions" viewBox="0 0 24 24" fill="none">
    <g id="SVGRepo_bgCarrier" stroke-width="0"></g>
    <g id="SVGRepo_tracerCarrier" stroke-linecap="round" stroke-linejoin="round"></g>
    <g id="SVGRepo_iconCarrier">
      <path d="M12 2.49987V21.4999M20 11.9999C20 16.9083 14.646 20.4783 12.698 21.6147C12.4766 21.7439 12.3659 21.8085 12.2097 21.842C12.0884 21.868 11.9116 21.868 11.7903 21.842C11.6341 21.8085 11.5234 21.7439 11.302 21.6147C9.35396 20.4783 4 16.9083 4 11.9999V7.21747C4 6.41796 4 6.0182 4.13076 5.67457C4.24627 5.37101 4.43398 5.10015 4.67766 4.8854C4.9535 4.64231 5.3278 4.50195 6.0764 4.22122L11.4382 2.21054C11.6461 2.13258 11.75 2.0936 11.857 2.07815C11.9518 2.06444 12.0482 2.06444 12.143 2.07815C12.25 2.0936 12.3539 2.13258 12.5618 2.21054L17.9236 4.22122C18.6722 4.50195 19.0465 4.64231 19.3223 4.8854C19.566 5.10015 19.7537 5.37101 19.8692 5.67457C20 6.0182 20 6.41796 20 7.21747V11.9999Z" stroke="#000000" stroke-width="2" stroke-linecap="round" stroke-linejoin="round"></path>
    </g>
  </symbol>

  <symbol id="ico-scope-terms" viewBox="0 0 24 24" fill="none">
    <g id="SVGRepo_bgCarrier" stroke-width="0"></g>
    <g id="SVGRepo_tracerCarrier" stroke-linecap="round" stroke-linejoin="round"></g>
    <g id="SVGRepo_iconCarrier">
      <path d="M12 4C10.6193 4 9.5 5.11929 9.5 6.5C9.5 7.88071 10.6193 9 12 9C13.3807 9 14.5 7.88071 14.5 6.5C14.5 5.11929 13.3807 4 12 4ZM12 4V2M21 14.9375C18.8012 17.4287 15.5841 19 12 19C8.41592 19 5.19883 17.4287 3 14.9375M10.7448 8.66169L3 22M13.2552 8.66169L21 22" stroke="#000000" stroke-width="2" stroke-linecap="round" stroke-linejoin="round"></path>
    </g>
  </symbol>

  <symbol id="ico-audience-fit" viewBox="0 0 24 24" fill="none">
    <g id="SVGRepo_bgCarrier" stroke-width="0"></g>
    <g id="SVGRepo_tracerCarrier" stroke-linecap="round" stroke-linejoin="round"></g>
    <g id="SVGRepo_iconCarrier">
      <path d="M2 12H22M2 12C2 17.5228 6.47715 22 12 22M2 12C2 6.47715 6.47715 2 12 2M22 12C22 17.5228 17.5228 22 12 22M22 12C22 6.47715 17.5228 2 12 2M12 2C14.5013 4.73835 15.9228 8.29203 16 12C15.9228 15.708 14.5013 19.2616 12 22M12 2C9.49872 4.73835 8.07725 8.29203 8 12C8.07725 15.708 9.49872 19.2616 12 22" stroke="#000000" stroke-width="2" stroke-linecap="round" stroke-linejoin="round"></path>
    </g>
  </symbol>

  <symbol id="ico-roi-model" viewBox="0 0 24 24" fill="none">
    <g id="SVGRepo_bgCarrier" stroke-width="0"></g>
    <g id="SVGRepo_tracerCarrier" stroke-linecap="round" stroke-linejoin="round"></g>
    <g id="SVGRepo_iconCarrier">
      <path d="M3 21.0002H21M6 18.0002V10.0002M10 18.0002V10.0002M14 18.0002V10.0002M18 18.0002V10.0002M20 7.00022L12.424 2.26522C12.2702 2.16908 12.1933 2.12102 12.1108 2.10227C12.0379 2.0857 11.9621 2.0857 11.8892 2.10227C11.8067 2.12102 11.7298 2.16908 11.576 2.26522L4 7.00022H20Z" stroke="#000000" stroke-width="2" stroke-linecap="round" stroke-linejoin="round"></path>
    </g>
  </symbol>

  <symbol id="ico-perf-model" viewBox="0 0 24 24" fill="none">
    <g id="SVGRepo_bgCarrier" stroke-width="0"></g>
    <g id="SVGRepo_tracerCarrier" stroke-linecap="round" stroke-linejoin="round"></g>
    <g id="SVGRepo_iconCarrier">
      <path d="M12 3H16.2C17.8802 3 18.7202 3 19.362 3.32698C19.9265 3.6146 20.3854 4.07354 20.673 4.63803C21 5.27976 21 6.11984 21 7.8V16.2C21 17.8802 21 18.7202 20.673 19.362C20.3854 19.9265 19.9265 20.3854 19.362 20.673C18.7202 21 17.8802 21 16.2 21H7.8C6.11984 21 5.27976 21 4.63803 20.673C4.07354 20.3854 3.6146 19.9265 3.32698 19.362C3 18.7202 3 17.8802 3 16.2V12M8 13V17M16 11V17M12 7V17M5 8V2M2 5H8" stroke="#000000" stroke-width="2" stroke-linecap="round" stroke-linejoin="round"></path>
    </g>
  </symbol>

  <symbol id="ico-contract-signed" viewBox="0 0 24 24" fill="none">
    <g id="SVGRepo_bgCarrier" stroke-width="0"></g>
    <g id="SVGRepo_tracerCarrier" stroke-linecap="round" stroke-linejoin="round"></g>
    <g id="SVGRepo_iconCarrier">
      <path d="M16 8.00007L2 22.0001M18 15.0001H9M6.6 19.0001H13.3373C13.5818 19.0001 13.7041 19.0001 13.8192 18.9724C13.9213 18.9479 14.0188 18.9075 14.1083 18.8527C14.2092 18.7909 14.2957 18.7044 14.4686 18.5314L19.5 13.5001C19.739 13.2611 19.8584 13.1416 19.9546 13.0358C22.0348 10.7474 22.0348 7.25275 19.9546 4.9643C19.8584 4.85851 19.739 4.73903 19.5 4.50007C19.261 4.26111 19.1416 4.14163 19.0358 4.04547C16.7473 1.96531 13.2527 1.96531 10.9642 4.04547C10.8584 4.14163 10.739 4.26111 10.5 4.50007L5.46863 9.53144C5.29568 9.70439 5.2092 9.79087 5.14736 9.89179C5.09253 9.98126 5.05213 10.0788 5.02763 10.1808C5 10.2959 5 10.4182 5 10.6628V17.4001C5 17.9601 5 18.2401 5.10899 18.4541C5.20487 18.6422 5.35785 18.7952 5.54601 18.8911C5.75992 19.0001 6.03995 19.0001 6.6 19.0001Z" stroke="#000000" stroke-width="2" stroke-linecap="round" stroke-linejoin="round"></path>
    </g>
  </symbol>

  <symbol id="ico-curated-list" viewBox="0 0 24 24" fill="none">
    <g id="SVGRepo_bgCarrier" stroke-width="0"></g>
    <g id="SVGRepo_tracerCarrier" stroke-linecap="round" stroke-linejoin="round"></g>
    <g id="SVGRepo_iconCarrier">
      <path d="M3 12H3.01M7.5 12H7.51M16.5 12H16.51M12 12H12.01M21 12H21.01M21 21V20.2C21 19.0799 21 18.5198 20.782 18.092C20.5903 17.7157 20.2843 17.4097 19.908 17.218C19.4802 17 18.9201 17 17.8 17H6.2C5.0799 17 4.51984 17 4.09202 17.218C3.7157 17.4097 3.40973 17.7157 3.21799 18.092C3 18.5198 3 19.0799 3 20.2V21M21 3V3.8C21 4.9201 21 5.48016 20.782 5.90798C20.5903 6.28431 20.2843 6.59027 19.908 6.78201C19.4802 7 18.9201 7 17.8 7H6.2C5.0799 7 4.51984 7 4.09202 6.78201C3.71569 6.59027 3.40973 6.28431 3.21799 5.90798C3 5.48016 3 4.92011 3 3.8V3" stroke="#000000" stroke-width="2" stroke-linecap="round" stroke-linejoin="round"></path>
    </g>
  </symbol>

  <symbol id="ico-review-qa" viewBox="0 0 24 24" fill="none">
    <g id="SVGRepo_bgCarrier" stroke-width="0"></g>
    <g id="SVGRepo_tracerCarrier" stroke-linecap="round" stroke-linejoin="round"></g>
    <g id="SVGRepo_iconCarrier">
      <path d="M10.8571 7L5.14286 17M6 19H17.9998M18.8571 17L13.1429 7M3.6 21H4.4C4.96005 21 5.24008 21 5.45399 20.891C5.64215 20.7951 5.79513 20.6422 5.89101 20.454C6 20.2401 6 19.9601 6 19.4V18.6C6 18.0399 6 17.7599 5.89101 17.546C5.79513 17.3578 5.64215 17.2049 5.45399 17.109C5.24008 17 4.96005 17 4.4 17H3.6C3.03995 17 2.75992 17 2.54601 17.109C2.35785 17.2049 2.20487 17.3578 2.10899 17.546C2 17.7599 2 18.0399 2 18.6V19.4C2 19.9601 2 20.2401 2.10899 20.454C2.20487 20.6422 2.35785 20.7951 2.54601 20.891C2.75992 21 3.03995 21 3.6 21ZM19.6 21H20.4C20.9601 21 21.2401 21 21.454 20.891C21.6422 20.7951 21.7951 20.6422 21.891 20.454C22 20.2401 22 19.9601 22 19.4V18.6C22 18.0399 22 17.7599 21.891 17.546C21.7951 17.3578 21.6422 17.2049 21.454 17.109C21.2401 17 20.9601 17 20.4 17H19.6C19.0399 17 18.7599 17 18.546 17.109C18.3578 17.2049 18.2049 17.3578 18.109 17.546C18 17.7599 18 18.0399 18 18.6V19.4C18 19.9601 18 20.2401 18.109 20.454C18.2049 20.6422 18.3578 20.7951 18.546 20.891C18.7599 21 19.0399 21 19.6 21ZM11.6 7H12.4C12.9601 7 13.2401 7 13.454 6.89101C13.6422 6.79513 13.7951 6.64215 13.891 6.45399C14 6.24008 14 5.96005 14 5.4V4.6C14 4.03995 14 3.75992 13.891 3.54601C13.7951 3.35785 13.6422 3.20487 13.454 3.10899C13.2401 3 12.9601 3 12.4 3H11.6C11.0399 3 10.7599 3 10.546 3.10899C10.3578 3.20487 10.2049 3.35785 10.109 3.54601C10 3.75992 10 4.03995 10 4.6V5.4C10 5.96005 10 6.24008 10.109 6.45399C10.2049 6.64215 10.3578 6.79513 10.546 6.89101C10.7599 7 11.0399 7 11.6 7Z" stroke="#000000" stroke-width="2" stroke-linecap="round" stroke-linejoin="round"></path>
    </g>
  </symbol>
</svg>
