<!-- metallic-logo.svg -->
<svg xmlns="http://www.w3.org/2000/svg" width="800" height="800" viewBox="0 0 800 800">
  <!-- White background so the parser treats outside as empty -->
  <rect width="800" height="800" fill="white"/>
  <path d="M433.334 466.667C451.743 466.667 466.667 481.591 466.667 500C466.667 518.409 451.743 533.333 433.334 533.333H366.667C348.257 533.333 333.334 518.409 333.334 500C333.334 481.59 348.257 466.667 366.667 466.667H433.334Z" fill="black"/>
  <path d="M433.334 333.333C451.743 333.333 466.667 348.258 466.667 366.667C466.666 385.076 451.743 400 433.334 400H366.667C348.257 400 333.334 385.076 333.334 366.667C333.334 348.257 348.257 333.333 366.667 333.333H433.334Z" fill="black"/>
  <path d="M433.334 200C451.743 200 466.666 214.924 466.667 233.333C466.667 251.742 451.743 266.667 433.334 266.667H366.667C348.257 266.667 333.334 251.742 333.334 233.333C333.334 214.924 348.257 200 366.667 200H433.334Z" fill="black"/>
  <path fill-rule="evenodd" clip-rule="evenodd" d="M443.334 66.6669C461.452 66.6669 477.045 66.6406 489.835 67.6855C503.013 68.7622 516.121 71.1393 528.734 77.5663L528.733 77.5673C547.545 87.153 562.846 102.448 572.433 121.267L573.024 122.451C579.007 134.699 581.271 147.4 582.314 160.166C583.359 172.955 583.334 188.549 583.334 206.667V333.333H646.667C655.451 333.333 664.044 333.308 671.275 333.898C678.895 334.521 687.887 335.99 696.934 340.601L698.103 341.211C710.112 347.632 719.874 357.58 726.066 369.732L726.489 370.58C730.767 379.34 732.165 388.01 732.768 395.392C733.359 402.622 733.334 411.215 733.334 420V666.667C751.743 666.667 766.667 681.591 766.667 700C766.667 718.409 751.743 733.333 733.334 733.333H66.6667C48.2572 733.333 33.3337 718.409 33.3337 700C33.3337 681.878 47.7945 667.134 65.8063 666.678L66.6667 666.667V420C66.6667 411.215 66.6404 402.622 67.2311 395.392C67.8537 387.772 69.3233 378.781 73.9333 369.733C80.3281 357.182 90.5289 346.99 103.064 340.602L103.066 340.601C112.114 335.99 121.105 334.521 128.725 333.898C135.956 333.308 144.55 333.333 153.334 333.333H216.667V206.667C216.667 188.549 216.64 172.955 217.685 160.166C218.728 147.4 220.992 134.699 226.975 122.451L227.566 121.268C237.153 102.451 252.452 87.1524 271.268 77.5654C283.881 71.139 296.988 68.7622 310.166 67.6855C322.955 66.6406 338.548 66.6669 356.667 66.6669H443.334ZM153.334 400C143.45 400 138.041 400.026 134.155 400.344C134 400.356 133.854 400.369 133.716 400.382C133.703 400.52 133.689 400.666 133.676 400.82C133.359 404.706 133.334 410.115 133.334 420V666.667H216.667V400H153.334ZM356.667 133.333C337.448 133.333 325.039 133.359 315.594 134.131C306.539 134.871 303.182 136.127 301.534 136.967C295.262 140.162 290.162 145.261 286.966 151.533C286.127 153.181 284.87 156.54 284.131 165.595C283.359 175.039 283.334 187.449 283.334 206.667V666.667H516.667V206.667C516.667 187.449 516.641 175.039 515.869 165.595C515.129 156.539 513.874 153.182 513.034 151.534L513.032 151.53C509.839 145.262 504.739 140.163 498.466 136.967C496.819 136.127 493.462 134.871 484.406 134.131C474.961 133.359 462.552 133.333 443.334 133.333H356.667ZM583.334 666.667H666.667V420C666.667 410.115 666.64 404.706 666.323 400.82C666.31 400.666 666.297 400.52 666.284 400.382C666.146 400.369 666 400.356 665.846 400.344C661.96 400.026 656.552 400 646.667 400H583.334V666.667Z" fill="black"/>
</svg>
