<!-- metallic-logos-sprite.svg -->
<!-- Spritesheet with TWO logos on a single canvas for easy cropping later.
     Tiles:
       • LEFT  (0,0 → 800x800):  Logo A — your current metallic logo.
       • RIGHT (800,0 → 800x800): Logo B — the new icon you provided.
     Everything non-white is treated as “ink” (mask) by the parser you’re using. -->

<svg xmlns="http://www.w3.org/2000/svg" width="1600" height="800" viewBox="0 0 1600 800">
  <!-- Global white background -->
  <rect width="1600" height="800" fill="white"/>

  <!-- ================= LEFT TILE (Logo A) ================= -->
  <g id="logoA" transform="translate(0,0)">
    <!-- Local white tile background (redundant but explicit) -->
    <rect x="0" y="0" width="800" height="800" fill="white"/>
    <!-- Original “metallic-logo.svg” content (black shapes over white) -->
    <path d="M433.334 466.667C451.743 466.667 466.667 481.591 466.667 500C466.667 518.409 451.743 533.333 433.334 533.333H366.667C348.257 533.333 333.334 518.409 333.334 500C333.334 481.59 348.257 466.667 366.667 466.667H433.334Z" fill="black"/>
    <path d="M433.334 333.333C451.743 333.333 466.667 348.258 466.667 366.667C466.666 385.076 451.743 400 433.334 400H366.667C348.257 400 333.334 385.076 333.334 366.667C333.334 348.257 348.257 333.333 366.667 333.333H433.334Z" fill="black"/>
    <path d="M433.334 200C451.743 200 466.666 214.924 466.667 233.333C466.667 251.742 451.743 266.667 433.334 266.667H366.667C348.257 266.667 333.334 251.742 333.334 233.333C333.334 214.924 348.257 200 366.667 200H433.334Z" fill="black"/>
    <path fill-rule="evenodd" clip-rule="evenodd" d="M443.334 66.6669C461.452 66.6669 477.045 66.6406 489.835 67.6855C503.013 68.7622 516.121 71.1393 528.734 77.5663L528.733 77.5673C547.545 87.153 562.846 102.448 572.433 121.267L573.024 122.451C579.007 134.699 581.271 147.4 582.314 160.166C583.359 172.955 583.334 188.549 583.334 206.667V333.333H646.667C655.451 333.333 664.044 333.308 671.275 333.898C678.895 334.521 687.887 335.99 696.934 340.601L698.103 341.211C710.112 347.632 719.874 357.58 726.066 369.732L726.489 370.58C730.767 379.34 732.165 388.01 732.768 395.392C733.359 402.622 733.334 411.215 733.334 420V666.667C751.743 666.667 766.667 681.591 766.667 700C766.667 718.409 751.743 733.333 733.334 733.333H66.6667C48.2572 733.333 33.3337 718.409 33.3337 700C33.3337 681.878 47.7945 667.134 65.8063 666.678L66.6667 666.667V420C66.6667 411.215 66.6404 402.622 67.2311 395.392C67.8537 387.772 69.3233 378.781 73.9333 369.733C80.3281 357.182 90.5289 346.99 103.064 340.602L103.066 340.601C112.114 335.99 121.105 334.521 128.725 333.898C135.956 333.308 144.55 333.333 153.334 333.333H216.667V206.667C216.667 188.549 216.64 172.955 217.685 160.166C218.728 147.4 220.992 134.699 226.975 122.451L227.566 121.268C237.153 102.451 252.452 87.1524 271.268 77.5654C283.881 71.139 296.988 68.7622 310.166 67.6855C322.955 66.6406 338.548 66.6669 356.667 66.6669H443.334ZM153.334 400C143.45 400 138.041 400.026 134.155 400.344C134 400.356 133.854 400.369 133.716 400.382C133.703 400.52 133.689 400.666 133.676 400.82C133.359 404.706 133.334 410.115 133.334 420V666.667H216.667V400H153.334ZM356.667 133.333C337.448 133.333 325.039 133.359 315.594 134.131C306.539 134.871 303.182 136.127 301.534 136.967C295.262 140.162 290.162 145.261 286.966 151.533C286.127 153.181 284.87 156.54 284.131 165.595C283.359 175.039 283.334 187.449 283.334 206.667V666.667H516.667V206.667C516.667 187.449 516.641 175.039 515.869 165.595C515.129 156.539 513.874 153.182 513.034 151.534L513.032 151.53C509.839 145.262 504.739 140.163 498.466 136.967C496.819 136.127 493.462 134.871 484.406 134.131C474.961 133.359 462.552 133.333 443.334 133.333H356.667ZM583.334 666.667H666.667V420C666.667 410.115 666.64 404.706 666.323 400.82C666.31 400.666 666.297 400.52 666.284 400.382C666.146 400.369 666 400.356 665.846 400.344C661.96 400.026 656.552 400 646.667 400H583.334V666.667Z" fill="black"/>
  </g>

  <!-- ================ RIGHT TILE (Logo B — new icon) ================ -->
  <!-- The new icon’s original size is 734×667. We center it inside the 800×800 right tile. -->
  <g id="logoB" transform="translate(833,66.5)">
    <!-- Local white tile background behind the icon area (kept to guarantee “white outside”) -->
    <!-- Note: This rect is optional since the global background is already white -->
    <!-- <rect x="-33" y="-66.5" width="800" height="800" fill="white"/> -->

    <!-- New icon paths (black ink) exactly as provided -->
    <path d="M550 400C568.409 400 583.333 414.924 583.333 433.333C583.333 451.742 568.409 466.666 550 466.666H450C431.591 466.666 416.666 451.743 416.666 433.333C416.666 414.924 431.591 400 450 400H550Z" fill="black"/>
    <path d="M550 266.666C568.409 266.666 583.333 281.591 583.333 300C583.333 318.409 568.409 333.333 550 333.333H450C431.591 333.333 416.666 318.409 416.666 300C416.666 281.591 431.591 266.666 450 266.666H550Z" fill="black"/>
    <path d="M550 133.333C568.409 133.333 583.333 148.257 583.333 166.666C583.333 185.075 568.409 200 550 200H450C431.591 200 416.666 185.076 416.666 166.666C416.666 148.257 431.591 133.333 450 133.333H550Z" fill="black"/>
    <path fill-rule="evenodd" clip-rule="evenodd" d="M560 6.08052e-05C578.118 6.04513e-05 593.712 -0.0262798 606.501 1.01862C619.679 2.09529 632.788 4.47246 645.4 10.8995L645.399 10.9005C664.212 20.4861 679.513 35.7814 689.1 54.5997L689.69 55.7842C695.674 68.0323 697.937 80.7328 698.98 93.4991C700.025 106.288 700 121.882 700 140V600C718.409 600 733.333 614.924 733.333 633.333C733.333 651.742 718.409 666.666 700 666.666H33.333C14.9235 666.666 1.23699e-05 651.743 0 633.333C3.24699e-05 615.211 14.4608 600.467 32.4727 600.011L33.333 600V406.666C33.333 388.548 33.3067 372.954 34.3516 360.165C35.4282 346.987 37.8054 333.879 44.2324 321.266C53.8188 302.452 69.1174 287.151 87.9375 277.565C100.549 271.139 113.655 268.762 126.832 267.686C139.621 266.641 155.215 266.666 173.333 266.666H300V140C300 121.882 299.974 106.288 301.019 93.4991C302.095 80.3208 304.472 67.2125 310.899 54.5997C320.486 35.7812 335.787 20.4852 354.6 10.8995L355.783 10.3087C368.031 4.32519 380.732 2.06165 393.498 1.01862C406.287 -0.0262984 421.882 6.08052e-05 440 6.08052e-05H560ZM173.333 333.333C154.114 333.333 141.705 333.359 132.261 334.131C123.206 334.871 119.849 336.126 118.201 336.966L118.197 336.968C112.125 340.061 107.148 344.943 103.938 350.948L103.633 351.533C102.794 353.18 101.537 356.538 100.797 365.594C100.025 375.039 100 387.448 100 406.666V600H300V333.333H173.333ZM440 66.6661C420.782 66.6661 408.372 66.6923 398.927 67.4639C389.872 68.2038 386.514 69.4596 384.867 70.2989L384.866 70.2999C378.594 73.4961 373.495 78.5952 370.302 84.8633L370.3 84.8672C369.46 86.5151 368.204 89.8725 367.464 98.9278C366.692 108.372 366.666 120.782 366.666 140V600H633.333V140C633.333 120.782 633.307 108.372 632.535 98.9278C631.795 89.8725 630.54 86.5151 629.7 84.8672L629.698 84.8633C626.505 78.595 621.406 73.4961 615.133 70.2999C613.486 69.4606 610.128 68.2038 601.072 67.4639C591.627 66.6923 579.218 66.6661 560 66.6661H440Z" fill="black"/>
  </g>
</svg>
