<!-- metallic-logos-sprite.svg (THREE logos, horizontal spritesheet)
     Tiles (800×800 each):
       • LEFT   (0,0 → 800×800)     : Logo A — original metallic logo
       • MIDDLE (800,0 → 800×800)   : Logo B — second icon
       • RIGHT  (1600,0 → 800×800)  : Logo C — third icon
     Parser rule: anything NOT white is treated as “ink”.
-->
<svg xmlns="http://www.w3.org/2000/svg" width="2400" height="800" viewBox="0 0 2400 800">
  <!-- Global white background -->
  <rect width="2400" height="800" fill="white"/>

  <!-- ================= LEFT TILE (Logo A) ================= -->
  <g id="logoA" transform="translate(0,0)">
    <rect x="0" y="0" width="800" height="800" fill="white"/>
    <path d="M433.334 466.667C451.743 466.667 466.667 481.591 466.667 500C466.667 518.409 451.743 533.333 433.334 533.333H366.667C348.257 533.333 333.334 518.409 333.334 500C333.334 481.59 348.257 466.667 366.667 466.667H433.334Z" fill="black"/>
    <path d="M433.334 333.333C451.743 333.333 466.667 348.258 466.667 366.667C466.666 385.076 451.743 400 433.334 400H366.667C348.257 400 333.334 385.076 333.334 366.667C333.334 348.257 348.257 333.333 366.667 333.333H433.334Z" fill="black"/>
    <path d="M433.334 200C451.743 200 466.666 214.924 466.667 233.333C466.667 251.742 451.743 266.667 433.334 266.667H366.667C348.257 266.667 333.334 251.742 333.334 233.333C333.334 214.924 348.257 200 366.667 200H433.334Z" fill="black"/>
    <path fill-rule="evenodd" clip-rule="evenodd" d="M443.334 66.6669C461.452 66.6669 477.045 66.6406 489.835 67.6855C503.013 68.7622 516.121 71.1393 528.734 77.5663L528.733 77.5673C547.545 87.153 562.846 102.448 572.433 121.267L573.024 122.451C579.007 134.699 581.271 147.4 582.314 160.166C583.359 172.955 583.334 188.549 583.334 206.667V333.333H646.667C655.451 333.333 664.044 333.308 671.275 333.898C678.895 334.521 687.887 335.99 696.934 340.601L698.103 341.211C710.112 347.632 719.874 357.58 726.066 369.732L726.489 370.58C730.767 379.34 732.165 388.01 732.768 395.392C733.359 402.622 733.334 411.215 733.334 420V666.667C751.743 666.667 766.667 681.591 766.667 700C766.667 718.409 751.743 733.333 733.334 733.333H66.6667C48.2572 733.333 33.3337 718.409 33.3337 700C33.3337 681.878 47.7945 667.134 65.8063 666.678L66.6667 666.667V420C66.6667 411.215 66.6404 402.622 67.2311 395.392C67.8537 387.772 69.3233 378.781 73.9333 369.733C80.3281 357.182 90.5289 346.99 103.064 340.602L103.066 340.601C112.114 335.99 121.105 334.521 128.725 333.898C135.956 333.308 144.55 333.333 153.334 333.333H216.667V206.667C216.667 188.549 216.64 172.955 217.685 160.166C218.728 147.4 220.992 134.699 226.975 122.451L227.566 121.268C237.153 102.451 252.452 87.1524 271.268 77.5654C283.881 71.139 296.988 68.7622 310.166 67.6855C322.955 66.6406 338.548 66.6669 356.667 66.6669H443.334ZM153.334 400C143.45 400 138.041 400.026 134.155 400.344C134 400.356 133.854 400.369 133.716 400.382C133.703 400.52 133.689 400.666 133.676 400.82C133.359 404.706 133.334 410.115 133.334 420V666.667H216.667V400H153.334ZM356.667 133.333C337.448 133.333 325.039 133.359 315.594 134.131C306.539 134.871 303.182 136.127 301.534 136.967C295.262 140.162 290.162 145.261 286.966 151.533C286.127 153.181 284.87 156.54 284.131 165.595C283.359 175.039 283.334 187.449 283.334 206.667V666.667H516.667V206.667C516.667 187.449 516.641 175.039 515.869 165.595C515.129 156.539 513.874 153.182 513.034 151.534L513.032 151.53C509.839 145.262 504.739 140.163 498.466 136.967C496.819 136.127 493.462 134.871 484.406 134.131C474.961 133.359 462.552 133.333 443.334 133.333H356.667ZM583.334 666.667H666.667V420C666.667 410.115 666.64 404.706 666.323 400.82C666.31 400.666 666.297 400.52 666.284 400.382C666.146 400.369 666 400.356 665.846 400.344C661.96 400.026 656.552 400 646.667 400H583.334V666.667Z" fill="black"/>
  </g>

  <!-- ================ MIDDLE TILE (Logo B) ================ -->
  <!-- Original size 734×667 → centered in 800×800 tile -->
  <g id="logoB" transform="translate(833,66.5)">
    <path d="M550 400C568.409 400 583.333 414.924 583.333 433.333C583.333 451.742 568.409 466.666 550 466.666H450C431.591 466.666 416.666 451.743 416.666 433.333C416.666 414.924 431.591 400 450 400H550Z" fill="black"/>
    <path d="M550 266.666C568.409 266.666 583.333 281.591 583.333 300C583.333 318.409 568.409 333.333 550 333.333H450C431.591 333.333 416.666 318.409 416.666 300C416.666 281.591 431.591 266.666 450 266.666H550Z" fill="black"/>
    <path d="M550 133.333C568.409 133.333 583.333 148.257 583.333 166.666C583.333 185.075 568.409 200 550 200H450C431.591 200 416.666 185.076 416.666 166.666C416.666 148.257 431.591 133.333 450 133.333H550Z" fill="black"/>
    <path fill-rule="evenodd" clip-rule="evenodd" d="M560 6.08052e-05C578.118 6.04513e-05 593.712 -0.0262798 606.501 1.01862C619.679 2.09529 632.788 4.47246 645.4 10.8995L645.399 10.9005C664.212 20.4861 679.513 35.7814 689.1 54.5997L689.69 55.7842C695.674 68.0323 697.937 80.7328 698.98 93.4991C700.025 106.288 700 121.882 700 140V600C718.409 600 733.333 614.924 733.333 633.333C733.333 651.742 718.409 666.666 700 666.666H33.333C14.9235 666.666 1.23699e-05 651.743 0 633.333C3.24699e-05 615.211 14.4608 600.467 32.4727 600.011L33.333 600V406.666C33.333 388.548 33.3067 372.954 34.3516 360.165C35.4282 346.987 37.8054 333.879 44.2324 321.266C53.8188 302.452 69.1174 287.151 87.9375 277.565C100.549 271.139 113.655 268.762 126.832 267.686C139.621 266.641 155.215 266.666 173.333 266.666H300V140C300 121.882 299.974 106.288 301.019 93.4991C302.095 80.3208 304.472 67.2125 310.899 54.5997C320.486 35.7812 335.787 20.4852 354.6 10.8995L355.783 10.3087C368.031 4.32519 380.732 2.06165 393.498 1.01862C406.287 -0.0262984 421.882 6.08052e-05 440 6.08052e-05H560ZM173.333 333.333C154.114 333.333 141.705 333.359 132.261 334.131C123.206 334.871 119.849 336.126 118.201 336.966L118.197 336.968C112.125 340.061 107.148 344.943 103.938 350.948L103.633 351.533C102.794 353.18 101.537 356.538 100.797 365.594C100.025 375.039 100 387.448 100 406.666V600H300V333.333H173.333ZM440 66.6661C420.782 66.6661 408.372 66.6923 398.927 67.4639C389.872 68.2038 386.514 69.4596 384.867 70.2989L384.866 70.2999C378.594 73.4961 373.495 78.5952 370.302 84.8633L370.3 84.8672C369.46 86.5151 368.204 89.8725 367.464 98.9278C366.692 108.372 366.666 120.782 366.666 140V600H633.333V140C633.333 120.782 633.307 108.372 632.535 98.9278C631.795 89.8725 630.54 86.5151 629.7 84.8672L629.698 84.8633C626.505 78.595 621.406 73.4961 615.133 70.2999C613.486 69.4606 610.128 68.2038 601.072 67.4639C591.627 66.6923 579.218 66.6661 560 66.6661H440Z" fill="black"/>
  </g>

  <!-- ================= RIGHT TILE (Logo C) ================= -->
  <!-- Original size 667×667 → centered in 800×800 tile (offset 66.5, 66.5) -->
  <g id="logoC" transform="translate(1666.5,66.5)">
    <path fill-rule="evenodd" clip-rule="evenodd" d="M526.666 6.07692e-05C544.784 6.07692e-05 560.379 -0.0262929 573.168 1.01862C586.346 2.09529 599.454 4.47267 612.066 10.8995L612.945 11.3526C631.357 20.9643 646.331 36.0773 655.769 54.6036C662.194 67.2153 664.571 80.322 665.648 93.4991C666.692 106.288 666.666 121.882 666.666 140V526.666C666.666 544.784 666.692 560.379 665.648 573.168C664.571 586.345 662.192 599.451 655.767 612.063L655.768 612.064C646.182 630.88 630.882 646.179 612.066 655.765L612.067 655.766C599.454 662.193 586.346 664.571 573.168 665.648C560.379 666.692 544.784 666.666 526.666 666.666H140C121.882 666.666 106.287 666.693 93.4981 665.648C80.3212 664.571 67.2152 662.193 54.6036 655.768C36.0775 646.33 20.9643 631.357 11.3526 612.945L10.8995 612.066C4.47267 599.454 2.09529 586.346 1.01862 573.168C-0.0262929 560.379 6.07692e-05 544.784 6.07692e-05 526.666V140C6.07101e-05 121.882 -0.0262699 106.288 1.01862 93.4991C2.09531 80.3212 4.47319 67.214 10.8995 54.6016C20.4867 35.7848 35.7848 20.4857 54.6016 10.8985C67.2141 4.4722 80.3212 2.0953 93.4991 1.01862C106.288 -0.0262799 121.882 6.071e-05 140 6.07692e-05H526.666ZM233.332 254.857C208.901 282.539 173.157 300 133.333 300C109.047 300 86.278 293.504 66.6661 282.159V526.666C66.6661 545.884 66.6923 558.294 67.4639 567.739C68.2038 576.794 69.4596 580.152 70.2989 581.799L70.2999 581.8C73.4961 588.073 78.5952 593.171 84.8633 596.364L84.8672 596.366C86.5151 597.206 89.8726 598.462 98.9278 599.202C108.372 599.974 120.782 600 140 600H200V453.333C200 444.548 199.974 435.955 200.565 428.725C201.187 421.105 202.656 412.114 207.266 403.066C213.66 390.515 223.861 380.324 236.397 373.935L236.399 373.934C245.447 369.324 254.437 367.854 262.058 367.232C269.288 366.641 277.881 366.666 286.666 366.666H380C388.785 366.666 397.378 366.641 404.608 367.232C412.229 367.854 421.22 369.323 430.268 373.934C442.812 380.326 453.007 390.521 459.399 403.065L459.822 403.913C464.101 412.673 465.498 421.343 466.102 428.725C466.692 435.955 466.666 444.548 466.666 453.333V600H526.666C545.884 600 558.295 599.974 567.739 599.202C576.795 598.462 580.152 597.207 581.799 596.367L581.802 596.365C588.071 593.171 593.171 588.071 596.365 581.802L596.367 581.799C597.207 580.152 598.462 576.795 599.202 567.739C599.974 558.295 600 545.884 600 526.666V282.159C580.388 293.504 557.62 300 533.333 300C493.509 300 457.764 282.54 433.333 254.858C408.902 282.54 373.158 300 333.333 300C293.508 300 257.763 282.539 233.332 254.857ZM286.666 433.333C276.781 433.333 271.373 433.359 267.487 433.677C267.333 433.689 267.186 433.702 267.048 433.715C267.035 433.853 267.022 433.999 267.01 434.153C266.692 438.039 266.666 443.448 266.666 453.333V600H400V453.333C400 443.448 399.974 438.039 399.656 434.153C399.644 433.999 399.63 433.853 399.617 433.715C399.48 433.702 399.334 433.689 399.18 433.677C395.294 433.359 389.885 433.333 380 433.333H286.666ZM140 66.6661C120.782 66.6661 108.372 66.6923 98.9278 67.4639C89.8724 68.2038 86.5152 69.4602 84.8672 70.2999C78.5955 73.4953 73.4953 78.5945 70.2999 84.8663C69.4602 86.5143 68.2038 89.8725 67.4639 98.9278C66.6923 108.372 66.6661 120.782 66.6661 140V166.666C66.6661 203.485 96.5143 233.333 133.333 233.333C170.152 233.333 200 203.485 200 166.666C200 148.257 214.924 133.333 233.333 133.333C251.742 133.333 266.666 148.257 266.666 166.666C266.666 203.485 296.513 233.333 333.333 233.333C370.153 233.333 400 203.485 400 166.666C400 148.257 414.924 133.333 433.333 133.333C451.742 133.333 466.666 148.257 466.666 166.666C466.666 203.485 496.513 233.333 533.333 233.333C569.865 233.333 599.533 203.95 599.994 167.528L600 166.666V140C600 120.782 599.974 108.372 599.202 98.9278C598.462 89.8725 597.206 86.5151 596.366 84.8672L596.364 84.8633C593.171 78.5952 588.073 73.4961 581.8 70.2999L581.799 70.2989C580.152 69.4596 576.794 68.2038 567.739 67.4639C558.294 66.6923 545.884 66.6661 526.666 66.6661H140Z" fill="black"/>
  </g>
</svg>
