<svg xmlns="http://www.w3.org/2000/svg" style="display:none">
  <symbol id="ico-brand-safety" viewBox="0 0 24 24" fill="none">
    <g id="SVGRepo_bgCarrier" stroke-width="0"></g>
    <g id="SVGRepo_tracerCarrier" stroke-linecap="round" stroke-linejoin="round"></g>
    <g id="SVGRepo_iconCarrier">
      <path d="M3 7.8C3 6.11984 3 5.27976 3.32698 4.63803C3.6146 4.07354 4.07354 3.6146 4.63803 3.32698C5.27976 3 6.11984 3 7.8 3H16.2C17.8802 3 18.7202 3 19.362 3.32698C19.9265 3.6146 20.3854 4.07354 20.673 4.63803C21 5.27976 21 6.11984 21 7.8V16.2C21 17.8802 21 18.7202 20.673 19.362C20.3854 19.9265 19.9265 20.3854 19.362 20.673C18.7202 21 17.8802 21 16.2 21H7.8C6.11984 21 5.27976 21 4.63803 20.673C4.07354 20.3854 3.6146 19.9265 3.32698 19.362C3 18.7202 3 17.8802 3 16.2V7.8Z" stroke="#000000" stroke-width="2" stroke-linecap="round" stroke-linejoin="round"></path>
      <path d="M13.8333 7.3C13.8333 7.01997 13.8333 6.87996 13.7788 6.773C13.7309 6.67892 13.6544 6.60243 13.5603 6.5545C13.4534 6.5 13.3134 6.5 13.0333 6.5H10.9667C10.6866 6.5 10.5466 6.5 10.4397 6.5545C10.3456 6.60243 10.2691 6.67892 10.2212 6.773C10.1667 6.87996 10.1667 7.01997 10.1667 7.3V9.36667C10.1667 9.64669 10.1667 9.78671 10.1122 9.89366C10.0642 9.98774 9.98774 10.0642 9.89366 10.1122C9.78671 10.1667 9.64669 10.1667 9.36667 10.1667H7.3C7.01997 10.1667 6.87996 10.1667 6.773 10.2212C6.67892 10.2691 6.60243 10.3456 6.5545 10.4397C6.5 10.5466 6.5 10.6866 6.5 10.9667V13.0333C6.5 13.3134 6.5 13.4534 6.5545 13.5603C6.60243 13.6544 6.67892 13.7309 6.773 13.7788C6.87996 13.8333 7.01997 13.8333 7.3 13.8333H9.36667C9.64669 13.8333 9.78671 13.8333 9.89366 13.8878C9.98774 13.9358 10.0642 14.0123 10.1122 14.1063C10.1667 14.2133 10.1667 14.3533 10.1667 14.6333V16.7C10.1667 16.98 10.1667 17.12 10.2212 17.227C10.2691 17.3211 10.3456 17.3976 10.4397 17.4455C10.5466 17.5 10.6866 17.5 10.9667 17.5H13.0333C13.3134 17.5 13.4534 17.5 13.5603 17.4455C13.6544 17.3976 13.7309 17.3211 13.7788 17.227C13.8333 17.12 13.8333 16.98 13.8333 16.7V14.6333C13.8333 14.3533 13.8333 14.2133 13.8878 14.1063C13.9358 14.0123 14.0123 13.9358 14.1063 13.8878C14.2133 13.8333 14.3533 13.8333 14.6333 13.8333H16.7C16.98 13.8333 17.12 13.8333 17.227 13.7788C17.3211 13.7309 17.3976 13.6544 17.4455 13.5603C17.5 13.4534 17.5 13.3134 17.5 13.0333V10.9667C17.5 10.6866 17.5 10.5466 17.4455 10.4397C17.3976 10.3456 17.3211 10.2691 17.227 10.2212C17.12 10.1667 16.98 10.1667 16.7 10.1667H14.6333C14.3533 10.1667 14.2133 10.1667 14.1063 10.1122C14.0123 10.0642 13.9358 9.98774 13.8878 9.89366C13.8333 9.78671 13.8333 9.64669 13.8333 9.36667V7.3Z" stroke="#000000" stroke-width="2" stroke-linecap="round" stroke-linejoin="round"></path>
    </g>
  </symbol>

  <symbol id="ico-product-seeding" viewBox="0 0 24 24" fill="none">
    <g id="SVGRepo_bgCarrier" stroke-width="0"></g>
    <g id="SVGRepo_tracerCarrier" stroke-linecap="round" stroke-linejoin="round"></g>
    <g id="SVGRepo_iconCarrier">
      <path d="M15.9996 8C15.9996 9.06087 15.5782 10.0783 14.828 10.8284C14.0779 11.5786 13.0605 12 11.9996 12C10.9387 12 9.92131 11.5786 9.17116 10.8284C8.42102 10.0783 7.99959 9.06087 7.99959 8M3.63281 7.40138L2.93281 15.8014C2.78243 17.6059 2.70724 18.5082 3.01227 19.2042C3.28027 19.8157 3.74462 20.3204 4.33177 20.6382C5.00006 21 5.90545 21 7.71623 21H16.283C18.0937 21 18.9991 21 19.6674 20.6382C20.2546 20.3204 20.7189 19.8157 20.9869 19.2042C21.2919 18.5082 21.2167 17.6059 21.0664 15.8014L20.3664 7.40138C20.237 5.84875 20.1723 5.07243 19.8285 4.48486C19.5257 3.96744 19.0748 3.5526 18.5341 3.29385C17.92 3 17.141 3 15.583 3L8.41623 3C6.85821 3 6.07921 3 5.4651 3.29384C4.92433 3.5526 4.47349 3.96744 4.17071 4.48486C3.82689 5.07243 3.76219 5.84875 3.63281 7.40138Z" stroke="#000000" stroke-width="2" stroke-linecap="round" stroke-linejoin="round"></path>
    </g>
  </symbol>

  <symbol id="ico-go-live" viewBox="0 0 24 24" fill="none">
    <g id="SVGRepo_bgCarrier" stroke-width="0"></g>
    <g id="SVGRepo_tracerCarrier" stroke-linecap="round" stroke-linejoin="round"></g>
    <g id="SVGRepo_iconCarrier">
      <path d="M12 22C17.5228 22 22 17.5228 22 12C22 6.47715 17.5228 2 12 2C6.47715 2 2 6.47715 2 12C2 17.5228 6.47715 22 12 22Z" stroke="#000000" stroke-width="2" stroke-linecap="round" stroke-linejoin="round"></path>
      <path d="M12 18C15.3137 18 18 15.3137 18 12C18 8.68629 15.3137 6 12 6C8.68629 6 6 8.68629 6 12C6 15.3137 8.68629 18 12 18Z" stroke="#000000" stroke-width="2" stroke-linecap="round" stroke-linejoin="round"></path>
      <path d="M12 14C13.1046 14 14 13.1046 14 12C14 10.8954 13.1046 10 12 10C10.8954 10 10 10.8954 10 12C10 13.1046 10.8954 14 12 14Z" stroke="#000000" stroke-width="2" stroke-linecap="round" stroke-linejoin="round"></path>
    </g>
  </symbol>

  <symbol id="ico-creator-outreach" viewBox="0 0 24 24" fill="none">
    <g id="SVGRepo_bgCarrier" stroke-width="0"></g>
    <g id="SVGRepo_tracerCarrier" stroke-linecap="round" stroke-linejoin="round"></g>
    <g id="SVGRepo_iconCarrier">
      <path d="M16.2426 7.75714C18.5858 10.1003 18.5858 13.8993 16.2426 16.2424M7.75736 16.2424C5.41421 13.8992 5.41421 10.1002 7.75736 7.7571M4.92893 19.0708C1.02369 15.1656 1.02369 8.83395 4.92893 4.92871M19.0711 4.92876C22.9763 8.834 22.9763 15.1656 19.0711 19.0709M14 11.9998C14 13.1043 13.1046 13.9998 12 13.9998C10.8954 13.9998 10 13.1043 10 11.9998C10 10.8952 10.8954 9.99978 12 9.99978C13.1046 9.99978 14 10.8952 14 11.9998Z" stroke="#000000" stroke-width="2" stroke-linecap="round" stroke-linejoin="round"></path>
    </g>
  </symbol>

  <symbol id="ico-match-engine" viewBox="0 0 24 24" fill="none">
    <g id="SVGRepo_bgCarrier" stroke-width="0"></g>
    <g id="SVGRepo_tracerCarrier" stroke-linecap="round" stroke-linejoin="round"></g>
    <g id="SVGRepo_iconCarrier">
      <path d="M17.1153 15.3582C16.8446 15.6642 16.5606 15.9665 16.2635 16.2635C11.9678 20.5593 6.58585 22.1422 4.2427 19.7991C2.6363 18.1926 2.8752 15.158 4.56847 12.0242M6.88967 8.72526C7.17138 8.40495 7.46772 8.08875 7.77824 7.77824C12.074 3.48247 17.4559 1.89956 19.7991 4.2427C21.4066 5.85021 21.1662 8.88795 19.4698 12.024M16.2635 7.77824C20.5593 12.074 22.1422 17.4559 19.7991 19.7991C17.4559 22.1422 12.074 20.5593 7.77824 16.2635C3.48247 11.9678 1.89956 6.58585 4.2427 4.2427C6.58585 1.89956 11.9678 3.48247 16.2635 7.77824ZM13.0001 12C13.0001 12.5523 12.5523 13 12.0001 13C11.4478 13 11.0001 12.5523 11.0001 12C11.0001 11.4477 11.4478 11 12.0001 11C12.5523 11 13.0001 11.4477 13.0001 12Z" stroke="#000000" stroke-width="2" stroke-linecap="round" stroke-linejoin="round"></path>
    </g>
  </symbol>

  <symbol id="ico-fraud-check" viewBox="0 0 24 24" fill="none">
    <g id="SVGRepo_bgCarrier" stroke-width="0"></g>
    <g id="SVGRepo_tracerCarrier" stroke-linecap="round" stroke-linejoin="round"></g>
    <g id="SVGRepo_iconCarrier">
      <path d="M5.80688 18.5304C5.82459 18.5005 5.84273 18.4709 5.8613 18.4413C7.2158 16.2881 7.99991 13.7418 7.99991 11C7.99991 8.79086 9.79077 7 11.9999 7C14.209 7 15.9999 8.79086 15.9999 11C15.9999 12.017 15.9307 13.0186 15.7966 14M13.6792 20.8436C14.2909 19.6226 14.7924 18.3369 15.1707 17M19.0097 18.132C19.6547 15.8657 20 13.4732 20 11C20 6.58172 16.4183 3 12 3C10.5429 3 9.17669 3.38958 8 4.07026M3 15.3641C3.64066 14.0454 4 12.5646 4 11C4 9.54285 4.38958 8.17669 5.07026 7M11.9999 11C11.9999 14.5172 10.9911 17.7988 9.24707 20.5712" stroke="#000000" stroke-width="2" stroke-linecap="round" stroke-linejoin="round"></path>
    </g>
  </symbol>

  <symbol id="ico-timing-fit" viewBox="0 0 24 24" fill="none">
    <g id="SVGRepo_bgCarrier" stroke-width="0"></g>
    <g id="SVGRepo_tracerCarrier" stroke-linecap="round" stroke-linejoin="round"></g>
    <g id="SVGRepo_iconCarrier">
      <path d="M12 9.5V13.5L14.5 15M12 5C7.30558 5 3.5 8.80558 3.5 13.5C3.5 18.1944 7.30558 22 12 22C16.6944 22 20.5 18.1944 20.5 13.5C20.5 8.80558 16.6944 5 12 5ZM12 5V2M10 2H14M20.329 5.59204L18.829 4.09204L19.579 4.84204M3.67102 5.59204L5.17102 4.09204L4.42102 4.84204" stroke="#000000" stroke-width="2" stroke-linecap="round" stroke-linejoin="round"></path>
    </g>
  </symbol>

  <symbol id="ico-live-analytics" viewBox="0 0 24 24" fill="none">
    <g id="SVGRepo_bgCarrier" stroke-width="0"></g>
    <g id="SVGRepo_tracerCarrier" stroke-linecap="round" stroke-linejoin="round"></g>
    <g id="SVGRepo_iconCarrier">
      <path d="M6.5 13L7.28446 14.5689C7.54995 15.0999 7.68269 15.3654 7.86003 15.5954C8.01739 15.7996 8.20041 15.9826 8.40455 16.14C8.63462 16.3173 8.9001 16.4501 9.43108 16.7155L11 17.5L9.43108 18.2845C8.9001 18.5499 8.63462 18.6827 8.40455 18.86C8.20041 19.0174 8.01739 19.2004 7.86003 19.4046C7.68269 19.6346 7.54995 19.9001 7.28446 20.4311L6.5 22L5.71554 20.4311C5.45005 19.9001 5.31731 19.6346 5.13997 19.4046C4.98261 19.2004 4.79959 19.0174 4.59545 18.86C4.36538 18.6827 4.0999 18.5499 3.56892 18.2845L2 17.5L3.56892 16.7155C4.0999 16.4501 4.36538 16.3173 4.59545 16.14C4.79959 15.9826 4.98261 15.7996 5.13997 15.5954C5.31731 15.3654 5.45005 15.0999 5.71554 14.5689L6.5 13Z" stroke="#000000" stroke-width="2" stroke-linecap="round" stroke-linejoin="round"></path>
      <path d="M15 2L16.1786 5.06442C16.4606 5.79765 16.6016 6.16426 16.8209 6.47264C17.0153 6.74595 17.254 6.98475 17.5274 7.17909C17.8357 7.39836 18.2024 7.53937 18.9356 7.82138L22 9L18.9356 10.1786C18.2024 10.4606 17.8357 10.6016 17.5274 10.8209C17.254 11.0153 17.0153 11.254 16.8209 11.5274C16.6016 11.8357 16.4606 12.2024 16.1786 12.9356L15 16L13.8214 12.9356C13.5394 12.2024 13.3984 11.8357 13.1791 11.5274C12.9847 11.254 12.746 11.0153 12.4726 10.8209C12.1643 10.6016 11.7976 10.4606 11.0644 10.1786L8 9L11.0644 7.82138C11.7976 7.53937 12.1643 7.39836 12.4726 7.17909C12.746 6.98475 12.9847 6.74595 13.1791 6.47264C13.3984 6.16426 13.5394 5.79765 13.8214 5.06442L15 2Z" stroke="#000000" stroke-width="2" stroke-linecap="round" stroke-linejoin="round"></path>
    </g>
  </symbol>

  <symbol id="ico-guaranteed-impressions" viewBox="0 0 24 24" fill="none">
    <g id="SVGRepo_bgCarrier" stroke-width="0"></g>
    <g id="SVGRepo_tracerCarrier" stroke-linecap="round" stroke-linejoin="round"></g>
    <g id="SVGRepo_iconCarrier">
      <path d="M12 2.49987V21.4999M20 11.9999C20 16.9083 14.646 20.4783 12.698 21.6147C12.4766 21.7439 12.3659 21.8085 12.2097 21.842C12.0884 21.868 11.9116 21.868 11.7903 21.842C11.6341 21.8085 11.5234 21.7439 11.302 21.6147C9.35396 20.4783 4 16.9083 4 11.9999V7.21747C4 6.41796 4 6.0182 4.13076 5.67457C4.24627 5.37101 4.43398 5.10015 4.67766 4.8854C4.9535 4.64231 5.3278 4.50195 6.0764 4.22122L11.4382 2.21054C11.6461 2.13258 11.75 2.0936 11.857 2.07815C11.9518 2.06444 12.0482 2.06444 12.143 2.07815C12.25 2.0936 12.3539 2.13258 12.5618 2.21054L17.9236 4.22122C18.6722 4.50195 19.0465 4.64231 19.3223 4.8854C19.566 5.10015 19.7537 5.37101 19.8692 5.67457C20 6.0182 20 6.41796 20 7.21747V11.9999Z" stroke="#000000" stroke-width="2" stroke-linecap="round" stroke-linejoin="round"></path>
    </g>
  </symbol>

  <symbol id="ico-scope-terms" viewBox="0 0 24 24" fill="none">
    <g id="SVGRepo_bgCarrier" stroke-width="0"></g>
    <g id="SVGRepo_tracerCarrier" stroke-linecap="round" stroke-linejoin="round"></g>
    <g id="SVGRepo_iconCarrier">
      <path d="M12 4C10.6193 4 9.5 5.11929 9.5 6.5C9.5 7.88071 10.6193 9 12 9C13.3807 9 14.5 7.88071 14.5 6.5C14.5 5.11929 13.3807 4 12 4ZM12 4V2M21 14.9375C18.8012 17.4287 15.5841 19 12 19C8.41592 19 5.19883 17.4287 3 14.9375M10.7448 8.66169L3 22M13.2552 8.66169L21 22" stroke="#000000" stroke-width="2" stroke-linecap="round" stroke-linejoin="round"></path>
    </g>
  </symbol>

  <symbol id="ico-audience-fit" viewBox="0 0 24 24" fill="none">
    <g id="SVGRepo_bgCarrier" stroke-width="0"></g>
    <g id="SVGRepo_tracerCarrier" stroke-linecap="round" stroke-linejoin="round"></g>
    <g id="SVGRepo_iconCarrier">
      <path d="M2 12H22M2 12C2 17.5228 6.47715 22 12 22M2 12C2 6.47715 6.47715 2 12 2M22 12C22 17.5228 17.5228 22 12 22M22 12C22 6.47715 17.5228 2 12 2M12 2C14.5013 4.73835 15.9228 8.29203 16 12C15.9228 15.708 14.5013 19.2616 12 22M12 2C9.49872 4.73835 8.07725 8.29203 8 12C8.07725 15.708 9.49872 19.2616 12 22" stroke="#000000" stroke-width="2" stroke-linecap="round" stroke-linejoin="round"></path>
    </g>
  </symbol>

  <symbol id="ico-roi-model" viewBox="0 0 24 24" fill="none">
    <g id="SVGRepo_bgCarrier" stroke-width="0"></g>
    <g id="SVGRepo_tracerCarrier" stroke-linecap="round" stroke-linejoin="round"></g>
    <g id="SVGRepo_iconCarrier">
      <path d="M3 21.0002H21M6 18.0002V10.0002M10 18.0002V10.0002M14 18.0002V10.0002M18 18.0002V10.0002M20 7.00022L12.424 2.26522C12.2702 2.16908 12.1933 2.12102 12.1108 2.10227C12.0379 2.0857 11.9621 2.0857 11.8892 2.10227C11.8067 2.12102 11.7298 2.16908 11.576 2.26522L4 7.00022H20Z" stroke="#000000" stroke-width="2" stroke-linecap="round" stroke-linejoin="round"></path>
    </g>
  </symbol>

  <symbol id="ico-perf-model" viewBox="0 0 24 24" fill="none">
    <g id="SVGRepo_bgCarrier" stroke-width="0"></g>
    <g id="SVGRepo_tracerCarrier" stroke-linecap="round" stroke-linejoin="round"></g>
    <g id="SVGRepo_iconCarrier">
      <path d="M12 16V21M18 21L14.0486 17.7072C13.3198 17.0998 12.9554 16.7962 12.5487 16.6801C12.19 16.5778 11.81 16.5778 11.4513 16.6801C11.0446 16.7962 10.6802 17.0998 9.95141 17.7072L6 21M8 11V12M12 9V12M16 7V12M22 3H2M3 3H21V11.2C21 12.8802 21 13.7202 20.673 14.362C20.3854 14.9265 19.9265 15.3854 19.362 15.673C18.7202 16 17.8802 16 16.2 16H7.8C6.11984 16 5.27976 16 4.63803 15.673C4.07354 15.3854 3.6146 14.9265 3.32698 14.362C3 13.7202 3 12.8802 3 11.2V3Z" stroke="#000000" stroke-width="2" stroke-linecap="round" stroke-linejoin="round"></path>
    </g>
  </symbol>

  <symbol id="ico-contract-signed" viewBox="0 0 24 24" fill="none">
    <g id="SVGRepo_bgCarrier" stroke-width="0"></g>
    <g id="SVGRepo_tracerCarrier" stroke-linecap="round" stroke-linejoin="round"></g>
    <g id="SVGRepo_iconCarrier">
      <path d="M16 8.00007L2 22.0001M18 15.0001H9M6.6 19.0001H13.3373C13.5818 19.0001 13.7041 19.0001 13.8192 18.9724C13.9213 18.9479 14.0188 18.9075 14.1083 18.8527C14.2092 18.7909 14.2957 18.7044 14.4686 18.5314L19.5 13.5001C19.739 13.2611 19.8584 13.1416 19.9546 13.0358C22.0348 10.7474 22.0348 7.25275 19.9546 4.9643C19.8584 4.85851 19.739 4.73903 19.5 4.50007C19.261 4.26111 19.1416 4.14163 19.0358 4.04547C16.7473 1.96531 13.2527 1.96531 10.9642 4.04547C10.8584 4.14163 10.739 4.26111 10.5 4.50007L5.46863 9.53144C5.29568 9.70439 5.2092 9.79087 5.14736 9.89179C5.09253 9.98126 5.05213 10.0788 5.02763 10.1808C5 10.2959 5 10.4182 5 10.6628V17.4001C5 17.9601 5 18.2401 5.10899 18.4541C5.20487 18.6422 5.35785 18.7952 5.54601 18.8911C5.75992 19.0001 6.03995 19.0001 6.6 19.0001Z" stroke="#000000" stroke-width="2" stroke-linecap="round" stroke-linejoin="round"></path>
    </g>
  </symbol>

  <symbol id="ico-curated-list" viewBox="0 0 24 24" fill="none">
    <g id="SVGRepo_bgCarrier" stroke-width="0"></g>
    <g id="SVGRepo_tracerCarrier" stroke-linecap="round" stroke-linejoin="round"></g>
    <g id="SVGRepo_iconCarrier">
      <path d="M3 12H3.01M7.5 12H7.51M16.5 12H16.51M12 12H12.01M21 12H21.01M21 21V20.2C21 19.0799 21 18.5198 20.782 18.092C20.5903 17.7157 20.2843 17.4097 19.908 17.218C19.4802 17 18.9201 17 17.8 17H6.2C5.0799 17 4.51984 17 4.09202 17.218C3.7157 17.4097 3.40973 17.7157 3.21799 18.092C3 18.5198 3 19.0799 3 20.2V21M21 3V3.8C21 4.9201 21 5.48016 20.782 5.90798C20.5903 6.28431 20.2843 6.59027 19.908 6.78201C19.4802 7 18.9201 7 17.8 7H6.2C5.0799 7 4.51984 7 4.09202 6.78201C3.71569 6.59027 3.40973 6.28431 3.21799 5.90798C3 5.48016 3 4.92011 3 3.8V3" stroke="#000000" stroke-width="2" stroke-linecap="round" stroke-linejoin="round"></path>
    </g>
  </symbol>

  <symbol id="ico-review-qa" viewBox="0 0 24 24" fill="none">
    <g id="SVGRepo_bgCarrier" stroke-width="0"></g>
    <g id="SVGRepo_tracerCarrier" stroke-linecap="round" stroke-linejoin="round"></g>
    <g id="SVGRepo_iconCarrier">
      <path d="M10.8571 7L5.14286 17M6 19H17.9998M18.8571 17L13.1429 7M3.6 21H4.4C4.96005 21 5.24008 21 5.45399 20.891C5.64215 20.7951 5.79513 20.6422 5.89101 20.454C6 20.2401 6 19.9601 6 19.4V18.6C6 18.0399 6 17.7599 5.89101 17.546C5.79513 17.3578 5.64215 17.2049 5.45399 17.109C5.24008 17 4.96005 17 4.4 17H3.6C3.03995 17 2.75992 17 2.54601 17.109C2.35785 17.2049 2.20487 17.3578 2.10899 17.546C2 17.7599 2 18.0399 2 18.6V19.4C2 19.9601 2 20.2401 2.10899 20.454C2.20487 20.6422 2.35785 20.7951 2.54601 20.891C2.75992 21 3.03995 21 3.6 21ZM19.6 21H20.4C20.9601 21 21.2401 21 21.454 20.891C21.6422 20.7951 21.7951 20.6422 21.891 20.454C22 20.2401 22 19.9601 22 19.4V18.6C22 18.0399 22 17.7599 21.891 17.546C21.7951 17.3578 21.6422 17.2049 21.454 17.109C21.2401 17 20.9601 17 20.4 17H19.6C19.0399 17 18.7599 17 18.546 17.109C18.3578 17.2049 18.2049 17.3578 18.109 17.546C18 17.7599 18 18.0399 18 18.6V19.4C18 19.9601 18 20.2401 18.109 20.454C18.2049 20.6422 18.3578 20.7951 18.546 20.891C18.7599 21 19.0399 21 19.6 21ZM11.6 7H12.4C12.9601 7 13.2401 7 13.454 6.89101C13.6422 6.79513 13.7951 6.64215 13.891 6.45399C14 6.24008 14 5.96005 14 5.4V4.6C14 4.03995 14 3.75992 13.891 3.54601C13.7951 3.35785 13.6422 3.20487 13.454 3.10899C13.2401 3 12.9601 3 12.4 3H11.6C11.0399 3 10.7599 3 10.546 3.10899C10.3578 3.20487 10.2049 3.35785 10.109 3.54601C10 3.75992 10 4.03995 10 4.6V5.4C10 5.96005 10 6.24008 10.109 6.45399C10.2049 6.64215 10.3578 6.79513 10.546 6.89101C10.7599 7 11.0399 7 11.6 7Z" stroke="#000000" stroke-width="2" stroke-linecap="round" stroke-linejoin="round"></path>
    </g>
  </symbol>
</svg>
